  0
SECTION
  2
HEADER
  9
$ACADVER
  1
AC1032
  9
$ACADMAINTVER
 90
      260
  9
$DWGCODEPAGE
  3
ANSI_1252
  9
$LASTSAVEDBY
  1
doman
  9
$REQUIREDVERSIONS
160
                 0
  9
$INSBASE
 10
0.0
 20
0.0
 30
0.0
  9
$EXTMIN
 10
64.62817924331003
 20
-158.1051110368842
 30
0.0
  9
$EXTMAX
 10
225.5031825919205
 20
-57.90510766029335
 30
0.0
  9
$LIMMIN
 10
0.0
 20
0.0
  9
$LIMMAX
 10
12.0
 20
9.0
  9
$ORTHOMODE
 70
     0
  9
$REGENMODE
 70
     1
  9
$FILLMODE
 70
     1
  9
$QTEXTMODE
 70
     0
  9
$MIRRTEXT
 70
     1
  9
$LTSCALE
 40
1.0
  9
$ATTMODE
 70
     1
  9
$TEXTSIZE
 40
0.2
  9
$TRACEWID
 40
0.05
  9
$TEXTSTYLE
  7
Standard
  9
$CLAYER
  8
0
  9
$CELTYPE
  6
ByLayer
  9
$CECOLOR
 62
   256
  9
$CELTSCALE
 40
1.0
  9
$DISPSILH
 70
     0
  9
$DIMSCALE
 40
1.0
  9
$DIMASZ
 40
0.18
  9
$DIMEXO
 40
0.0625
  9
$DIMDLI
 40
0.38
  9
$DIMRND
 40
0.0
  9
$DIMDLE
 40
0.0
  9
$DIMEXE
 40
0.18
  9
$DIMTP
 40
0.0
  9
$DIMTM
 40
0.0
  9
$DIMTXT
 40
0.18
  9
$DIMCEN
 40
0.09
  9
$DIMTSZ
 40
0.0
  9
$DIMTOL
 70
     0
  9
$DIMLIM
 70
     0
  9
$DIMTIH
 70
     1
  9
$DIMTOH
 70
     1
  9
$DIMSE1
 70
     0
  9
$DIMSE2
 70
     0
  9
$DIMTAD
 70
     0
  9
$DIMZIN
 70
     0
  9
$DIMBLK
  1

  9
$DIMASO
 70
     1
  9
$DIMSHO
 70
     1
  9
$DIMPOST
  1

  9
$DIMAPOST
  1

  9
$DIMALT
 70
     0
  9
$DIMALTD
 70
     2
  9
$DIMALTF
 40
25.4
  9
$DIMLFAC
 40
1.0
  9
$DIMTOFL
 70
     0
  9
$DIMTVP
 40
0.0
  9
$DIMTIX
 70
     0
  9
$DIMSOXD
 70
     0
  9
$DIMSAH
 70
     0
  9
$DIMBLK1
  1

  9
$DIMBLK2
  1

  9
$DIMSTYLE
  2
Standard
  9
$DIMCLRD
 70
     0
  9
$DIMCLRE
 70
     0
  9
$DIMCLRT
 70
     0
  9
$DIMTFAC
 40
1.0
  9
$DIMGAP
 40
0.09
  9
$DIMJUST
 70
     0
  9
$DIMSD1
 70
     0
  9
$DIMSD2
 70
     0
  9
$DIMTOLJ
 70
     1
  9
$DIMTZIN
 70
     0
  9
$DIMALTZ
 70
     0
  9
$DIMALTTZ
 70
     0
  9
$DIMUPT
 70
     0
  9
$DIMDEC
 70
     4
  9
$DIMTDEC
 70
     4
  9
$DIMALTU
 70
     2
  9
$DIMALTTD
 70
     2
  9
$DIMTXSTY
  7
Standard
  9
$DIMAUNIT
 70
     0
  9
$DIMADEC
 70
     0
  9
$DIMALTRND
 40
0.0
  9
$DIMAZIN
 70
     0
  9
$DIMDSEP
 70
    46
  9
$DIMATFIT
 70
     3
  9
$DIMFRAC
 70
     0
  9
$DIMLDRBLK
  1

  9
$DIMLUNIT
 70
     2
  9
$DIMLWD
 70
    -2
  9
$DIMLWE
 70
    -2
  9
$DIMTMOVE
 70
     0
  9
$DIMFXL
 40
1.0
  9
$DIMFXLON
 70
     0
  9
$DIMJOGANG
 40
0.7853981633974483
  9
$DIMTFILL
 70
     0
  9
$DIMTFILLCLR
 70
     0
  9
$DIMARCSYM
 70
     0
  9
$DIMLTYPE
  6

  9
$DIMLTEX1
  6

  9
$DIMLTEX2
  6

  9
$DIMTXTDIRECTION
 70
     0
  9
$LUNITS
 70
     2
  9
$LUPREC
 70
     4
  9
$SKETCHINC
 40
0.1
  9
$FILLETRAD
 40
0.5
  9
$AUNITS
 70
     0
  9
$AUPREC
 70
     0
  9
$MENU
  1
.
  9
$ELEVATION
 40
0.0
  9
$PELEVATION
 40
0.0
  9
$THICKNESS
 40
0.0
  9
$LIMCHECK
 70
     0
  9
$CHAMFERA
 40
0.5
  9
$CHAMFERB
 40
0.5
  9
$CHAMFERC
 40
1.0
  9
$CHAMFERD
 40
0.0
  9
$SKPOLY
 70
     0
  9
$TDCREATE
 40
2459073.828310185
  9
$TDUCREATE
 40
2459073.744976852
  9
$TDUPDATE
 40
2460164.722511574
  9
$TDUUPDATE
 40
2460164.639178241
  9
$TDINDWG
 40
0.0499768634
  9
$TDUSRTIMER
 40
0.0499768634
  9
$USRTIMER
 70
     1
  9
$ANGBASE
 50
0.0
  9
$ANGDIR
 70
     0
  9
$PDMODE
 70
     0
  9
$PDSIZE
 40
0.0
  9
$PLINEWID
 40
0.0
  9
$SPLFRAME
 70
     0
  9
$SPLINETYPE
 70
     6
  9
$SPLINESEGS
 70
     8
  9
$HANDSEED
  5
301
  9
$SURFTAB1
 70
     6
  9
$SURFTAB2
 70
     6
  9
$SURFTYPE
 70
     6
  9
$SURFU
 70
     6
  9
$SURFV
 70
     6
  9
$UCSBASE
  2

  9
$UCSNAME
  2

  9
$UCSORG
 10
0.0
 20
0.0
 30
0.0
  9
$UCSXDIR
 10
1.0
 20
0.0
 30
0.0
  9
$UCSYDIR
 10
0.0
 20
1.0
 30
0.0
  9
$UCSORTHOREF
  2

  9
$UCSORTHOVIEW
 70
     0
  9
$UCSORGTOP
 10
0.0
 20
0.0
 30
0.0
  9
$UCSORGBOTTOM
 10
0.0
 20
0.0
 30
0.0
  9
$UCSORGLEFT
 10
0.0
 20
0.0
 30
0.0
  9
$UCSORGRIGHT
 10
0.0
 20
0.0
 30
0.0
  9
$UCSORGFRONT
 10
0.0
 20
0.0
 30
0.0
  9
$UCSORGBACK
 10
0.0
 20
0.0
 30
0.0
  9
$PUCSBASE
  2

  9
$PUCSNAME
  2

  9
$PUCSORG
 10
0.0
 20
0.0
 30
0.0
  9
$PUCSXDIR
 10
1.0
 20
0.0
 30
0.0
  9
$PUCSYDIR
 10
0.0
 20
1.0
 30
0.0
  9
$PUCSORTHOREF
  2

  9
$PUCSORTHOVIEW
 70
     0
  9
$PUCSORGTOP
 10
0.0
 20
0.0
 30
0.0
  9
$PUCSORGBOTTOM
 10
0.0
 20
0.0
 30
0.0
  9
$PUCSORGLEFT
 10
0.0
 20
0.0
 30
0.0
  9
$PUCSORGRIGHT
 10
0.0
 20
0.0
 30
0.0
  9
$PUCSORGFRONT
 10
0.0
 20
0.0
 30
0.0
  9
$PUCSORGBACK
 10
0.0
 20
0.0
 30
0.0
  9
$USERI1
 70
     0
  9
$USERI2
 70
     0
  9
$USERI3
 70
     0
  9
$USERI4
 70
     0
  9
$USERI5
 70
     0
  9
$USERR1
 40
0.0
  9
$USERR2
 40
0.0
  9
$USERR3
 40
0.0
  9
$USERR4
 40
0.0
  9
$USERR5
 40
0.0
  9
$WORLDVIEW
 70
     1
  9
$SHADEDGE
 70
     3
  9
$SHADEDIF
 70
    70
  9
$TILEMODE
 70
     1
  9
$MAXACTVP
 70
    64
  9
$PINSBASE
 10
0.0
 20
0.0
 30
0.0
  9
$PLIMCHECK
 70
     0
  9
$PEXTMIN
 10
1.000000000000000E+20
 20
1.000000000000000E+20
 30
1.000000000000000E+20
  9
$PEXTMAX
 10
-1.000000000000000E+20
 20
-1.000000000000000E+20
 30
-1.000000000000000E+20
  9
$PLIMMIN
 10
0.0
 20
0.0
  9
$PLIMMAX
 10
12.0
 20
9.0
  9
$UNITMODE
 70
     0
  9
$VISRETAIN
 70
     1
  9
$PLINEGEN
 70
     0
  9
$PSLTSCALE
 70
     1
  9
$TREEDEPTH
 70
  3020
  9
$CMLSTYLE
  2
Standard
  9
$CMLJUST
 70
     0
  9
$CMLSCALE
 40
1.0
  9
$PROXYGRAPHICS
 70
     1
  9
$MEASUREMENT
 70
     0
  9
$CELWEIGHT
370
    -1
  9
$ENDCAPS
280
     0
  9
$JOINSTYLE
280
     0
  9
$LWDISPLAY
290
     1
  9
$INSUNITS
 70
     4
  9
$HYPERLINKBASE
  1

  9
$STYLESHEET
  1

  9
$XEDIT
290
     1
  9
$CEPSNTYPE
380
     0
  9
$PSTYLEMODE
290
     1
  9
$FINGERPRINTGUID
  2
{9662B3FC-E9F7-3A84-97C5-A1B173C16FE9}
  9
$VERSIONGUID
  2
{8ED7CA23-28F8-E745-BEC8-F92D5B8ECC55}
  9
$EXTNAMES
290
     1
  9
$PSVPSCALE
 40
0.0
  9
$OLESTARTUP
290
     0
  9
$SORTENTS
280
   127
  9
$INDEXCTL
280
     0
  9
$HIDETEXT
280
     1
  9
$XCLIPFRAME
280
     2
  9
$HALOGAP
280
     0
  9
$OBSCOLOR
 70
   257
  9
$OBSLTYPE
280
     0
  9
$INTERSECTIONDISPLAY
280
     0
  9
$INTERSECTIONCOLOR
 70
   257
  9
$DIMASSOC
280
     2
  9
$PROJECTNAME
  1

  9
$CAMERADISPLAY
290
     0
  9
$LENSLENGTH
 40
50.0
  9
$CAMERAHEIGHT
 40
0.0
  9
$STEPSPERSEC
 40
2.0
  9
$STEPSIZE
 40
6.0
  9
$3DDWFPREC
 40
2.0
  9
$PSOLWIDTH
 40
0.25
  9
$PSOLHEIGHT
 40
4.0
  9
$LOFTANG1
 40
1.570796326794897
  9
$LOFTANG2
 40
1.570796326794897
  9
$LOFTMAG1
 40
0.0
  9
$LOFTMAG2
 40
0.0
  9
$LOFTPARAM
 70
     7
  9
$LOFTNORMALS
280
     1
  9
$LATITUDE
 40
37.795
  9
$LONGITUDE
 40
-122.394
  9
$NORTHDIRECTION
 40
0.0
  9
$TIMEZONE
 70
 -8000
  9
$LIGHTGLYPHDISPLAY
280
     1
  9
$TILEMODELIGHTSYNCH
280
     1
  9
$CMATERIAL
347
3C
  9
$SOLIDHIST
280
     1
  9
$SHOWHIST
280
     1
  9
$DWFFRAME
280
     2
  9
$DGNFRAME
280
     2
  9
$REALWORLDSCALE
290
     1
  9
$INTERFERECOLOR
 62
   256
  9
$INTERFEREOBJVS
345
33
  9
$INTERFEREVPVS
346
1E2
  9
$CSHADOW
280
     0
  9
$SHADOWPLANELOCATION
 40
0.0
  0
ENDSEC
  0
SECTION
  2
CLASSES
  0
CLASS
  1
ACDBDICTIONARYWDFLT
  2
AcDbDictionaryWithDefault
  3
ObjectDBX Classes
 90
        0
 91
        1
280
     0
281
     0
  0
CLASS
  1
VISUALSTYLE
  2
AcDbVisualStyle
  3
ObjectDBX Classes
 90
     4095
 91
       26
280
     0
281
     0
  0
CLASS
  1
MATERIAL
  2
AcDbMaterial
  3
ObjectDBX Classes
 90
     1153
 91
        3
280
     0
281
     0
  0
CLASS
  1
SUN
  2
AcDbSun
  3
SCENEOE
 90
     1153
 91
        1
280
     0
281
     0
  0
CLASS
  1
TABLESTYLE
  2
AcDbTableStyle
  3
ObjectDBX Classes
 90
     4095
 91
        1
280
     0
281
     0
  0
CLASS
  1
SCALE
  2
AcDbScale
  3
ObjectDBX Classes
 90
     1153
 91
       17
280
     0
281
     0
  0
CLASS
  1
MLEADERSTYLE
  2
AcDbMLeaderStyle
  3
ACDB_MLEADERSTYLE_CLASS
 90
     4095
 91
        1
280
     0
281
     0
  0
CLASS
  1
ACDBSECTIONVIEWSTYLE
  2
AcDbSectionViewStyle
  3
ObjectDBX Classes
 90
     1025
 91
        1
280
     0
281
     0
  0
CLASS
  1
ACDBDETAILVIEWSTYLE
  2
AcDbDetailViewStyle
  3
ObjectDBX Classes
 90
     1025
 91
        1
280
     0
281
     0
  0
CLASS
  1
DICTIONARYVAR
  2
AcDbDictionaryVar
  3
ObjectDBX Classes
 90
        0
 91
        5
280
     0
281
     0
  0
CLASS
  1
CELLSTYLEMAP
  2
AcDbCellStyleMap
  3
ObjectDBX Classes
 90
     1152
 91
        1
280
     0
281
     0
  0
CLASS
  1
SORTENTSTABLE
  2
AcDbSortentsTable
  3
ObjectDBX Classes
 90
        0
 91
        1
280
     0
281
     0
  0
ENDSEC
  0
SECTION
  2
TABLES
  0
TABLE
  2
VPORT
  5
8
330
0
100
AcDbSymbolTable
 70
     1
  0
VPORT
  5
29
330
8
100
AcDbSymbolTableRecord
100
AcDbViewportTableRecord
  2
*Active
 70
     0
 10
0.0
 20
0.0
 11
1.0
 21
1.0
 12
-3.856384236938453
 22
4.424167546181934
 13
0.0
 23
0.0
 14
0.5
 24
0.5
 15
0.5
 25
0.5
 16
0.0
 26
0.0
 36
1.0
 17
149.3558243306979
 27
-107.9828652347437
 37
0.0
 40
246.354972682268
 41
1.289926289926289
 42
50.0
 43
0.0
 44
0.0
 50
0.0
 51
0.0
 71
     0
 72
   100
 73
     1
 74
     3
 75
     0
 76
     0
 77
     0
 78
     0
281
     0
 65
     1
110
0.0
120
0.0
130
0.0
111
1.0
121
0.0
131
0.0
112
0.0
122
1.0
132
0.0
 79
     0
146
0.0
348
2F
 60
     3
 61
     5
292
     1
282
     1
141
0.0
142
0.0
361
3F
1001
ACAD_NAV_VCDISPLAY
1070
     3
  0
ENDTAB
  0
TABLE
  2
LTYPE
  5
5
330
0
100
AcDbSymbolTable
 70
     1
  0
LTYPE
  5
14
330
5
100
AcDbSymbolTableRecord
100
AcDbLinetypeTableRecord
  2
ByBlock
 70
     0
  3

 72
    65
 73
     0
 40
0.0
  0
LTYPE
  5
15
330
5
100
AcDbSymbolTableRecord
100
AcDbLinetypeTableRecord
  2
ByLayer
 70
     0
  3

 72
    65
 73
     0
 40
0.0
  0
LTYPE
  5
16
330
5
100
AcDbSymbolTableRecord
100
AcDbLinetypeTableRecord
  2
Continuous
 70
     0
  3
Solid line
 72
    65
 73
     0
 40
0.0
  0
ENDTAB
  0
TABLE
  2
LAYER
  5
2
102
{ACAD_XDICTIONARY
360
236
102
}
330
0
100
AcDbSymbolTable
 70
     2
  0
LAYER
  5
10
330
2
100
AcDbSymbolTableRecord
100
AcDbLayerTableRecord
  2
0
 70
     0
 62
     7
  6
Continuous
370
    -3
390
F
347
3E
348
0
  0
LAYER
  5
40
330
2
100
AcDbSymbolTableRecord
100
AcDbLayerTableRecord
  2
Layer 1
 70
     0
 62
     7
  6
Continuous
370
    -3
390
F
347
3E
348
0
  0
ENDTAB
  0
TABLE
  2
STYLE
  5
3
330
0
100
AcDbSymbolTable
 70
     1
  0
STYLE
  5
11
330
3
100
AcDbSymbolTableRecord
100
AcDbTextStyleTableRecord
  2
Standard
 70
     0
 40
0.0
 41
1.0
 50
0.0
 71
     0
 42
0.2
  3
txt
  4

  0
ENDTAB
  0
TABLE
  2
VIEW
  5
6
330
0
100
AcDbSymbolTable
 70
     1
  0
ENDTAB
  0
TABLE
  2
UCS
  5
7
330
0
100
AcDbSymbolTable
 70
     0
  0
ENDTAB
  0
TABLE
  2
APPID
  5
9
330
0
100
AcDbSymbolTable
 70
     3
  0
APPID
  5
12
330
9
100
AcDbSymbolTableRecord
100
AcDbRegAppTableRecord
  2
ACAD
 70
     0
  0
APPID
  5
208
330
9
100
AcDbSymbolTableRecord
100
AcDbRegAppTableRecord
  2
ACAD_EXEMPT_FROM_CAD_STANDARDS
 70
     0
  0
APPID
  5
235
330
9
100
AcDbSymbolTableRecord
100
AcDbRegAppTableRecord
  2
ACAD_NAV_VCDISPLAY
 70
     0
  0
ENDTAB
  0
TABLE
  2
DIMSTYLE
  5
A
330
0
100
AcDbSymbolTable
 70
     1
100
AcDbDimStyleTable
 71
     1
340
27
  0
DIMSTYLE
105
27
330
A
100
AcDbSymbolTableRecord
100
AcDbDimStyleTableRecord
  2
Standard
 70
     0
340
11
  0
ENDTAB
  0
TABLE
  2
BLOCK_RECORD
  5
1
330
0
100
AcDbSymbolTable
 70
    25
  0
BLOCK_RECORD
  5
1F
102
{ACAD_XDICTIONARY
360
2C8
102
}
330
1
100
AcDbSymbolTableRecord
100
AcDbBlockTableRecord
  2
*Model_Space
340
22
 70
     0
280
     1
281
     0
  0
BLOCK_RECORD
  5
1B
330
1
100
AcDbSymbolTableRecord
100
AcDbBlockTableRecord
  2
*Paper_Space
340
1E
 70
     0
280
     1
281
     0
  0
BLOCK_RECORD
  5
23
330
1
100
AcDbSymbolTableRecord
100
AcDbBlockTableRecord
  2
*Paper_Space0
340
26
 70
     0
280
     1
281
     0
  0
BLOCK_RECORD
  5
42
330
1
100
AcDbSymbolTableRecord
100
AcDbBlockTableRecord
  2
block 2
340
0
102
{BLKREFS
331
43
102
}
 70
     0
280
     1
281
     0
  0
BLOCK_RECORD
  5
4D
330
1
100
AcDbSymbolTableRecord
100
AcDbBlockTableRecord
  2
block 3
340
0
102
{BLKREFS
331
4E
102
}
 70
     0
280
     1
281
     0
  0
BLOCK_RECORD
  5
58
330
1
100
AcDbSymbolTableRecord
100
AcDbBlockTableRecord
  2
block 4
340
0
102
{BLKREFS
331
59
102
}
 70
     0
280
     1
281
     0
  0
BLOCK_RECORD
  5
63
330
1
100
AcDbSymbolTableRecord
100
AcDbBlockTableRecord
  2
block 5
340
0
102
{BLKREFS
331
64
102
}
 70
     0
280
     1
281
     0
  0
BLOCK_RECORD
  5
6E
330
1
100
AcDbSymbolTableRecord
100
AcDbBlockTableRecord
  2
block 6
340
0
102
{BLKREFS
331
6F
102
}
 70
     0
280
     1
281
     0
  0
BLOCK_RECORD
  5
79
330
1
100
AcDbSymbolTableRecord
100
AcDbBlockTableRecord
  2
block 7
340
0
102
{BLKREFS
331
7A
102
}
 70
     0
280
     1
281
     0
  0
BLOCK_RECORD
  5
84
330
1
100
AcDbSymbolTableRecord
100
AcDbBlockTableRecord
  2
block 8
340
0
102
{BLKREFS
331
85
102
}
 70
     0
280
     1
281
     0
  0
BLOCK_RECORD
  5
8F
330
1
100
AcDbSymbolTableRecord
100
AcDbBlockTableRecord
  2
block 9
340
0
102
{BLKREFS
331
90
102
}
 70
     0
280
     1
281
     0
  0
BLOCK_RECORD
  5
9A
330
1
100
AcDbSymbolTableRecord
100
AcDbBlockTableRecord
  2
block 10
340
0
102
{BLKREFS
331
9B
102
}
 70
     0
280
     1
281
     0
  0
BLOCK_RECORD
  5
A5
330
1
100
AcDbSymbolTableRecord
100
AcDbBlockTableRecord
  2
block 11
340
0
102
{BLKREFS
331
A6
102
}
 70
     0
280
     1
281
     0
  0
BLOCK_RECORD
  5
B0
330
1
100
AcDbSymbolTableRecord
100
AcDbBlockTableRecord
  2
block 12
340
0
102
{BLKREFS
331
B1
102
}
 70
     0
280
     1
281
     0
  0
BLOCK_RECORD
  5
BB
330
1
100
AcDbSymbolTableRecord
100
AcDbBlockTableRecord
  2
block 13
340
0
102
{BLKREFS
331
BC
102
}
 70
     0
280
     1
281
     0
  0
BLOCK_RECORD
  5
C6
330
1
100
AcDbSymbolTableRecord
100
AcDbBlockTableRecord
  2
block 14
340
0
102
{BLKREFS
331
C7
102
}
 70
     0
280
     1
281
     0
  0
BLOCK_RECORD
  5
D1
330
1
100
AcDbSymbolTableRecord
100
AcDbBlockTableRecord
  2
block 15
340
0
102
{BLKREFS
331
D2
102
}
 70
     0
280
     1
281
     0
  0
BLOCK_RECORD
  5
DC
330
1
100
AcDbSymbolTableRecord
100
AcDbBlockTableRecord
  2
block 16
340
0
102
{BLKREFS
331
DD
102
}
 70
     0
280
     1
281
     0
  0
BLOCK_RECORD
  5
E7
330
1
100
AcDbSymbolTableRecord
100
AcDbBlockTableRecord
  2
block 17
340
0
102
{BLKREFS
331
E8
102
}
 70
     0
280
     1
281
     0
  0
BLOCK_RECORD
  5
F2
330
1
100
AcDbSymbolTableRecord
100
AcDbBlockTableRecord
  2
block 18
340
0
102
{BLKREFS
331
F3
102
}
 70
     0
280
     1
281
     0
  0
BLOCK_RECORD
  5
FD
330
1
100
AcDbSymbolTableRecord
100
AcDbBlockTableRecord
  2
block 19
340
0
102
{BLKREFS
331
FE
102
}
 70
     0
280
     1
281
     0
  0
BLOCK_RECORD
  5
108
330
1
100
AcDbSymbolTableRecord
100
AcDbBlockTableRecord
  2
block 20
340
0
102
{BLKREFS
331
109
102
}
 70
     0
280
     1
281
     0
  0
BLOCK_RECORD
  5
136
330
1
100
AcDbSymbolTableRecord
100
AcDbBlockTableRecord
  2
block 21
340
0
102
{BLKREFS
331
137
102
}
 70
     0
280
     1
281
     0
  0
BLOCK_RECORD
  5
141
330
1
100
AcDbSymbolTableRecord
100
AcDbBlockTableRecord
  2
block 22
340
0
102
{BLKREFS
331
142
102
}
 70
     0
280
     1
281
     0
  0
BLOCK_RECORD
  5
14C
330
1
100
AcDbSymbolTableRecord
100
AcDbBlockTableRecord
  2
block 23
340
0
102
{BLKREFS
331
14D
102
}
 70
     0
280
     1
281
     0
  0
BLOCK_RECORD
  5
157
330
1
100
AcDbSymbolTableRecord
100
AcDbBlockTableRecord
  2
block 24
340
0
102
{BLKREFS
331
158
102
}
 70
     0
280
     1
281
     0
  0
BLOCK_RECORD
  5
16D
330
1
100
AcDbSymbolTableRecord
100
AcDbBlockTableRecord
  2
block 25
340
0
102
{BLKREFS
331
16E
102
}
 70
     0
280
     1
281
     0
  0
ENDTAB
  0
ENDSEC
  0
SECTION
  2
BLOCKS
  0
BLOCK
  5
20
330
1F
100
AcDbEntity
  8
0
100
AcDbBlockBegin
  2
*Model_Space
 70
     0
 10
0.0
 20
0.0
 30
0.0
  3
*Model_Space
  1

  0
ENDBLK
  5
21
330
1F
100
AcDbEntity
  8
0
100
AcDbBlockEnd
  0
BLOCK
  5
1C
330
1B
100
AcDbEntity
 67
     1
  8
0
100
AcDbBlockBegin
  2
*Paper_Space
 70
     0
 10
0.0
 20
0.0
 30
0.0
  3
*Paper_Space
  1

  0
ENDBLK
  5
1D
330
1B
100
AcDbEntity
 67
     1
  8
0
100
AcDbBlockEnd
  0
BLOCK
  5
24
330
23
100
AcDbEntity
 67
     1
  8
0
100
AcDbBlockBegin
  2
*Paper_Space0
 70
     0
 10
0.0
 20
0.0
 30
0.0
  3
*Paper_Space0
  1

  0
ENDBLK
  5
25
330
23
100
AcDbEntity
 67
     1
  8
0
100
AcDbBlockEnd
  0
BLOCK
  5
44
330
42
100
AcDbEntity
  8
0
100
AcDbBlockBegin
  2
block 2
 70
     0
 10
0.0
 20
0.0
 30
0.0
  3
block 2
  1

  0
POLYLINE
  5
46
330
42
100
AcDbEntity
  8
Layer 1
 62
     7
420
 16777215
370
    25
100
AcDb2dPolyline
 66
     1
 10
0.0
 20
0.0
 30
0.0
  0
VERTEX
  5
47
330
46
100
AcDbEntity
  8
Layer 1
 62
     7
420
 16777215
370
    25
100
AcDbVertex
100
AcDb2dVertex
 10
76.15317924331009
 20
-76.90510766029351
 30
0.0
  0
VERTEX
  5
48
330
46
100
AcDbEntity
  8
Layer 1
 62
     7
420
 16777215
370
    25
100
AcDbVertex
100
AcDb2dVertex
 10
90.15317924330995
 20
-76.90510766029351
 30
0.0
  0
VERTEX
  5
49
330
46
100
AcDbEntity
  8
Layer 1
 62
     7
420
 16777215
370
    25
100
AcDbVertex
100
AcDb2dVertex
 10
90.15317924330995
 20
-62.90510766029335
 30
0.0
  0
VERTEX
  5
4A
330
46
100
AcDbEntity
  8
Layer 1
 62
     7
420
 16777215
370
    25
100
AcDbVertex
100
AcDb2dVertex
 10
76.15317924331009
 20
-62.90510766029335
 30
0.0
  0
VERTEX
  5
4B
330
46
100
AcDbEntity
  8
Layer 1
 62
     7
420
 16777215
370
    25
100
AcDbVertex
100
AcDb2dVertex
 10
76.15317924331009
 20
-76.90510766029351
 30
0.0
  0
SEQEND
  5
4C
330
46
100
AcDbEntity
  8
Layer 1
 62
     7
420
 16777215
370
    25
  0
ENDBLK
  5
45
330
42
100
AcDbEntity
  8
0
100
AcDbBlockEnd
  0
BLOCK
  5
4F
330
4D
100
AcDbEntity
  8
0
100
AcDbBlockBegin
  2
block 3
 70
     0
 10
0.0
 20
0.0
 30
0.0
  3
block 3
  1

  0
POLYLINE
  5
51
330
4D
100
AcDbEntity
  8
Layer 1
 62
     7
420
 16777215
370
    25
100
AcDb2dPolyline
 66
     1
 10
0.0
 20
0.0
 30
0.0
  0
VERTEX
  5
52
330
51
100
AcDbEntity
  8
Layer 1
 62
     7
420
 16777215
370
    25
100
AcDbVertex
100
AcDb2dVertex
 10
95.20317923854763
 20
-76.90510766029351
 30
0.0
  0
VERTEX
  5
53
330
51
100
AcDbEntity
  8
Layer 1
 62
     7
420
 16777215
370
    25
100
AcDbVertex
100
AcDb2dVertex
 10
109.2031792385478
 20
-76.90510766029351
 30
0.0
  0
VERTEX
  5
54
330
51
100
AcDbEntity
  8
Layer 1
 62
     7
420
 16777215
370
    25
100
AcDbVertex
100
AcDb2dVertex
 10
109.2031792385478
 20
-62.90510766029335
 30
0.0
  0
VERTEX
  5
55
330
51
100
AcDbEntity
  8
Layer 1
 62
     7
420
 16777215
370
    25
100
AcDbVertex
100
AcDb2dVertex
 10
95.20317923854763
 20
-62.90510766029335
 30
0.0
  0
VERTEX
  5
56
330
51
100
AcDbEntity
  8
Layer 1
 62
     7
420
 16777215
370
    25
100
AcDbVertex
100
AcDb2dVertex
 10
95.20317923854763
 20
-76.90510766029351
 30
0.0
  0
SEQEND
  5
57
330
51
100
AcDbEntity
  8
Layer 1
 62
     7
420
 16777215
370
    25
  0
ENDBLK
  5
50
330
4D
100
AcDbEntity
  8
0
100
AcDbBlockEnd
  0
BLOCK
  5
5A
330
58
100
AcDbEntity
  8
0
100
AcDbBlockBegin
  2
block 4
 70
     0
 10
0.0
 20
0.0
 30
0.0
  3
block 4
  1

  0
POLYLINE
  5
5C
330
58
100
AcDbEntity
  8
Layer 1
 62
     7
420
 16777215
370
    25
100
AcDb2dPolyline
 66
     1
 10
0.0
 20
0.0
 30
0.0
  0
VERTEX
  5
5D
330
5C
100
AcDbEntity
  8
Layer 1
 62
     7
420
 16777215
370
    25
100
AcDbVertex
100
AcDb2dVertex
 10
114.2531792337848
 20
-76.90510766029351
 30
0.0
  0
VERTEX
  5
5E
330
5C
100
AcDbEntity
  8
Layer 1
 62
     7
420
 16777215
370
    25
100
AcDbVertex
100
AcDb2dVertex
 10
128.2531792337853
 20
-76.90510766029351
 30
0.0
  0
VERTEX
  5
5F
330
5C
100
AcDbEntity
  8
Layer 1
 62
     7
420
 16777215
370
    25
100
AcDbVertex
100
AcDb2dVertex
 10
128.2531792337853
 20
-62.90510766029335
 30
0.0
  0
VERTEX
  5
60
330
5C
100
AcDbEntity
  8
Layer 1
 62
     7
420
 16777215
370
    25
100
AcDbVertex
100
AcDb2dVertex
 10
114.2531792337848
 20
-62.90510766029335
 30
0.0
  0
VERTEX
  5
61
330
5C
100
AcDbEntity
  8
Layer 1
 62
     7
420
 16777215
370
    25
100
AcDbVertex
100
AcDb2dVertex
 10
114.2531792337848
 20
-76.90510766029351
 30
0.0
  0
SEQEND
  5
62
330
5C
100
AcDbEntity
  8
Layer 1
 62
     7
420
 16777215
370
    25
  0
ENDBLK
  5
5B
330
58
100
AcDbEntity
  8
0
100
AcDbBlockEnd
  0
BLOCK
  5
65
330
63
100
AcDbEntity
  8
0
100
AcDbBlockBegin
  2
block 5
 70
     0
 10
0.0
 20
0.0
 30
0.0
  3
block 5
  1

  0
POLYLINE
  5
67
330
63
100
AcDbEntity
  8
Layer 1
 62
     7
420
 16777215
370
    25
100
AcDb2dPolyline
 66
     1
 10
0.0
 20
0.0
 30
0.0
  0
VERTEX
  5
68
330
67
100
AcDbEntity
  8
Layer 1
 62
     7
420
 16777215
370
    25
100
AcDbVertex
100
AcDb2dVertex
 10
133.3031792290223
 20
-76.90510766029351
 30
0.0
  0
VERTEX
  5
69
330
67
100
AcDbEntity
  8
Layer 1
 62
     7
420
 16777215
370
    25
100
AcDbVertex
100
AcDb2dVertex
 10
147.3031792290228
 20
-76.90510766029351
 30
0.0
  0
VERTEX
  5
6A
330
67
100
AcDbEntity
  8
Layer 1
 62
     7
420
 16777215
370
    25
100
AcDbVertex
100
AcDb2dVertex
 10
147.3031792290228
 20
-62.90510766029335
 30
0.0
  0
VERTEX
  5
6B
330
67
100
AcDbEntity
  8
Layer 1
 62
     7
420
 16777215
370
    25
100
AcDbVertex
100
AcDb2dVertex
 10
133.3031792290223
 20
-62.90510766029335
 30
0.0
  0
VERTEX
  5
6C
330
67
100
AcDbEntity
  8
Layer 1
 62
     7
420
 16777215
370
    25
100
AcDbVertex
100
AcDb2dVertex
 10
133.3031792290223
 20
-76.90510766029351
 30
0.0
  0
SEQEND
  5
6D
330
67
100
AcDbEntity
  8
Layer 1
 62
     7
420
 16777215
370
    25
  0
ENDBLK
  5
66
330
63
100
AcDbEntity
  8
0
100
AcDbBlockEnd
  0
BLOCK
  5
70
330
6E
100
AcDbEntity
  8
0
100
AcDbBlockBegin
  2
block 6
 70
     0
 10
0.0
 20
0.0
 30
0.0
  3
block 6
  1

  0
POLYLINE
  5
72
330
6E
100
AcDbEntity
  8
Layer 1
 62
     7
420
 16777215
370
    25
100
AcDb2dPolyline
 66
     1
 10
0.0
 20
0.0
 30
0.0
  0
VERTEX
  5
73
330
72
100
AcDbEntity
  8
Layer 1
 62
     7
420
 16777215
370
    25
100
AcDbVertex
100
AcDb2dVertex
 10
152.3531792242598
 20
-76.90510766029351
 30
0.0
  0
VERTEX
  5
74
330
72
100
AcDbEntity
  8
Layer 1
 62
     7
420
 16777215
370
    25
100
AcDbVertex
100
AcDb2dVertex
 10
166.3531792242603
 20
-76.90510766029351
 30
0.0
  0
VERTEX
  5
75
330
72
100
AcDbEntity
  8
Layer 1
 62
     7
420
 16777215
370
    25
100
AcDbVertex
100
AcDb2dVertex
 10
166.3531792242603
 20
-62.90510766029335
 30
0.0
  0
VERTEX
  5
76
330
72
100
AcDbEntity
  8
Layer 1
 62
     7
420
 16777215
370
    25
100
AcDbVertex
100
AcDb2dVertex
 10
152.3531792242598
 20
-62.90510766029335
 30
0.0
  0
VERTEX
  5
77
330
72
100
AcDbEntity
  8
Layer 1
 62
     7
420
 16777215
370
    25
100
AcDbVertex
100
AcDb2dVertex
 10
152.3531792242598
 20
-76.90510766029351
 30
0.0
  0
SEQEND
  5
78
330
72
100
AcDbEntity
  8
Layer 1
 62
     7
420
 16777215
370
    25
  0
ENDBLK
  5
71
330
6E
100
AcDbEntity
  8
0
100
AcDbBlockEnd
  0
BLOCK
  5
7B
330
79
100
AcDbEntity
  8
0
100
AcDbBlockBegin
  2
block 7
 70
     0
 10
0.0
 20
0.0
 30
0.0
  3
block 7
  1

  0
POLYLINE
  5
7D
330
79
100
AcDbEntity
  8
Layer 1
 62
     7
420
 16777215
370
    25
100
AcDb2dPolyline
 66
     1
 10
0.0
 20
0.0
 30
0.0
  0
VERTEX
  5
7E
330
7D
100
AcDbEntity
  8
Layer 1
 62
     7
420
 16777215
370
    25
100
AcDbVertex
100
AcDb2dVertex
 10
171.4031792194973
 20
-76.90510766029351
 30
0.0
  0
VERTEX
  5
7F
330
7D
100
AcDbEntity
  8
Layer 1
 62
     7
420
 16777215
370
    25
100
AcDbVertex
100
AcDb2dVertex
 10
185.4031792194978
 20
-76.90510766029351
 30
0.0
  0
VERTEX
  5
80
330
7D
100
AcDbEntity
  8
Layer 1
 62
     7
420
 16777215
370
    25
100
AcDbVertex
100
AcDb2dVertex
 10
185.4031792194978
 20
-62.90510766029335
 30
0.0
  0
VERTEX
  5
81
330
7D
100
AcDbEntity
  8
Layer 1
 62
     7
420
 16777215
370
    25
100
AcDbVertex
100
AcDb2dVertex
 10
171.4031792194973
 20
-62.90510766029335
 30
0.0
  0
VERTEX
  5
82
330
7D
100
AcDbEntity
  8
Layer 1
 62
     7
420
 16777215
370
    25
100
AcDbVertex
100
AcDb2dVertex
 10
171.4031792194973
 20
-76.90510766029351
 30
0.0
  0
SEQEND
  5
83
330
7D
100
AcDbEntity
  8
Layer 1
 62
     7
420
 16777215
370
    25
  0
ENDBLK
  5
7C
330
79
100
AcDbEntity
  8
0
100
AcDbBlockEnd
  0
BLOCK
  5
86
330
84
100
AcDbEntity
  8
0
100
AcDbBlockBegin
  2
block 8
 70
     0
 10
0.0
 20
0.0
 30
0.0
  3
block 8
  1

  0
POLYLINE
  5
88
330
84
100
AcDbEntity
  8
Layer 1
 62
     7
420
 16777215
370
    25
100
AcDb2dPolyline
 66
     1
 10
0.0
 20
0.0
 30
0.0
  0
VERTEX
  5
89
330
88
100
AcDbEntity
  8
Layer 1
 62
     7
420
 16777215
370
    25
100
AcDbVertex
100
AcDb2dVertex
 10
66.62817924331003
 20
-95.9551076602937
 30
0.0
  0
VERTEX
  5
8A
330
88
100
AcDbEntity
  8
Layer 1
 62
     7
420
 16777215
370
    25
100
AcDbVertex
100
AcDb2dVertex
 10
80.62817924330987
 20
-95.9551076602937
 30
0.0
  0
VERTEX
  5
8B
330
88
100
AcDbEntity
  8
Layer 1
 62
     7
420
 16777215
370
    25
100
AcDbVertex
100
AcDb2dVertex
 10
80.62817924330987
 20
-81.95510766029322
 30
0.0
  0
VERTEX
  5
8C
330
88
100
AcDbEntity
  8
Layer 1
 62
     7
420
 16777215
370
    25
100
AcDbVertex
100
AcDb2dVertex
 10
66.62817924331003
 20
-81.95510766029322
 30
0.0
  0
VERTEX
  5
8D
330
88
100
AcDbEntity
  8
Layer 1
 62
     7
420
 16777215
370
    25
100
AcDbVertex
100
AcDb2dVertex
 10
66.62817924331003
 20
-95.9551076602937
 30
0.0
  0
SEQEND
  5
8E
330
88
100
AcDbEntity
  8
Layer 1
 62
     7
420
 16777215
370
    25
  0
ENDBLK
  5
87
330
84
100
AcDbEntity
  8
0
100
AcDbBlockEnd
  0
BLOCK
  5
91
330
8F
100
AcDbEntity
  8
0
100
AcDbBlockBegin
  2
block 9
 70
     0
 10
0.0
 20
0.0
 30
0.0
  3
block 9
  1

  0
POLYLINE
  5
93
330
8F
100
AcDbEntity
  8
Layer 1
 62
     7
420
 16777215
370
    25
100
AcDb2dPolyline
 66
     1
 10
0.0
 20
0.0
 30
0.0
  0
VERTEX
  5
94
330
93
100
AcDbEntity
  8
Layer 1
 62
     7
420
 16777215
370
    25
100
AcDbVertex
100
AcDb2dVertex
 10
85.67817923854752
 20
-95.9551076602937
 30
0.0
  0
VERTEX
  5
95
330
93
100
AcDbEntity
  8
Layer 1
 62
     7
420
 16777215
370
    25
100
AcDbVertex
100
AcDb2dVertex
 10
99.67817923854736
 20
-95.9551076602937
 30
0.0
  0
VERTEX
  5
96
330
93
100
AcDbEntity
  8
Layer 1
 62
     7
420
 16777215
370
    25
100
AcDbVertex
100
AcDb2dVertex
 10
99.67817923854736
 20
-81.95510766029322
 30
0.0
  0
VERTEX
  5
97
330
93
100
AcDbEntity
  8
Layer 1
 62
     7
420
 16777215
370
    25
100
AcDbVertex
100
AcDb2dVertex
 10
85.67817923854752
 20
-81.95510766029322
 30
0.0
  0
VERTEX
  5
98
330
93
100
AcDbEntity
  8
Layer 1
 62
     7
420
 16777215
370
    25
100
AcDbVertex
100
AcDb2dVertex
 10
85.67817923854752
 20
-95.9551076602937
 30
0.0
  0
SEQEND
  5
99
330
93
100
AcDbEntity
  8
Layer 1
 62
     7
420
 16777215
370
    25
  0
ENDBLK
  5
92
330
8F
100
AcDbEntity
  8
0
100
AcDbBlockEnd
  0
BLOCK
  5
9C
330
9A
100
AcDbEntity
  8
0
100
AcDbBlockBegin
  2
block 10
 70
     0
 10
0.0
 20
0.0
 30
0.0
  3
block 10
  1

  0
POLYLINE
  5
9E
330
9A
100
AcDbEntity
  8
Layer 1
 62
     7
420
 16777215
370
    25
100
AcDb2dPolyline
 66
     1
 10
0.0
 20
0.0
 30
0.0
  0
VERTEX
  5
9F
330
9E
100
AcDbEntity
  8
Layer 1
 62
     7
420
 16777215
370
    25
100
AcDbVertex
100
AcDb2dVertex
 10
104.7281792337853
 20
-95.9551076602937
 30
0.0
  0
VERTEX
  5
A0
330
9E
100
AcDbEntity
  8
Layer 1
 62
     7
420
 16777215
370
    25
100
AcDbVertex
100
AcDb2dVertex
 10
118.7281792337845
 20
-95.9551076602937
 30
0.0
  0
VERTEX
  5
A1
330
9E
100
AcDbEntity
  8
Layer 1
 62
     7
420
 16777215
370
    25
100
AcDbVertex
100
AcDb2dVertex
 10
118.7281792337845
 20
-81.95510766029322
 30
0.0
  0
VERTEX
  5
A2
330
9E
100
AcDbEntity
  8
Layer 1
 62
     7
420
 16777215
370
    25
100
AcDbVertex
100
AcDb2dVertex
 10
104.7281792337853
 20
-81.95510766029322
 30
0.0
  0
VERTEX
  5
A3
330
9E
100
AcDbEntity
  8
Layer 1
 62
     7
420
 16777215
370
    25
100
AcDbVertex
100
AcDb2dVertex
 10
104.7281792337853
 20
-95.9551076602937
 30
0.0
  0
SEQEND
  5
A4
330
9E
100
AcDbEntity
  8
Layer 1
 62
     7
420
 16777215
370
    25
  0
ENDBLK
  5
9D
330
9A
100
AcDbEntity
  8
0
100
AcDbBlockEnd
  0
BLOCK
  5
A7
330
A5
100
AcDbEntity
  8
0
100
AcDbBlockBegin
  2
block 11
 70
     0
 10
0.0
 20
0.0
 30
0.0
  3
block 11
  1

  0
POLYLINE
  5
A9
330
A5
100
AcDbEntity
  8
Layer 1
 62
     7
420
 16777215
370
    25
100
AcDb2dPolyline
 66
     1
 10
0.0
 20
0.0
 30
0.0
  0
VERTEX
  5
AA
330
A9
100
AcDbEntity
  8
Layer 1
 62
     7
420
 16777215
370
    25
100
AcDbVertex
100
AcDb2dVertex
 10
123.7781792290228
 20
-95.9551076602937
 30
0.0
  0
VERTEX
  5
AB
330
A9
100
AcDbEntity
  8
Layer 1
 62
     7
420
 16777215
370
    25
100
AcDbVertex
100
AcDb2dVertex
 10
137.778179229022
 20
-95.9551076602937
 30
0.0
  0
VERTEX
  5
AC
330
A9
100
AcDbEntity
  8
Layer 1
 62
     7
420
 16777215
370
    25
100
AcDbVertex
100
AcDb2dVertex
 10
137.778179229022
 20
-81.95510766029322
 30
0.0
  0
VERTEX
  5
AD
330
A9
100
AcDbEntity
  8
Layer 1
 62
     7
420
 16777215
370
    25
100
AcDbVertex
100
AcDb2dVertex
 10
123.7781792290228
 20
-81.95510766029322
 30
0.0
  0
VERTEX
  5
AE
330
A9
100
AcDbEntity
  8
Layer 1
 62
     7
420
 16777215
370
    25
100
AcDbVertex
100
AcDb2dVertex
 10
123.7781792290228
 20
-95.9551076602937
 30
0.0
  0
SEQEND
  5
AF
330
A9
100
AcDbEntity
  8
Layer 1
 62
     7
420
 16777215
370
    25
  0
ENDBLK
  5
A8
330
A5
100
AcDbEntity
  8
0
100
AcDbBlockEnd
  0
BLOCK
  5
B2
330
B0
100
AcDbEntity
  8
0
100
AcDbBlockBegin
  2
block 12
 70
     0
 10
0.0
 20
0.0
 30
0.0
  3
block 12
  1

  0
POLYLINE
  5
B4
330
B0
100
AcDbEntity
  8
Layer 1
 62
     7
420
 16777215
370
    25
100
AcDb2dPolyline
 66
     1
 10
0.0
 20
0.0
 30
0.0
  0
VERTEX
  5
B5
330
B4
100
AcDbEntity
  8
Layer 1
 62
     7
420
 16777215
370
    25
100
AcDbVertex
100
AcDb2dVertex
 10
142.8281792242603
 20
-95.9551076602937
 30
0.0
  0
VERTEX
  5
B6
330
B4
100
AcDbEntity
  8
Layer 1
 62
     7
420
 16777215
370
    25
100
AcDbVertex
100
AcDb2dVertex
 10
156.8281792242595
 20
-95.9551076602937
 30
0.0
  0
VERTEX
  5
B7
330
B4
100
AcDbEntity
  8
Layer 1
 62
     7
420
 16777215
370
    25
100
AcDbVertex
100
AcDb2dVertex
 10
156.8281792242595
 20
-81.95510766029322
 30
0.0
  0
VERTEX
  5
B8
330
B4
100
AcDbEntity
  8
Layer 1
 62
     7
420
 16777215
370
    25
100
AcDbVertex
100
AcDb2dVertex
 10
142.8281792242603
 20
-81.95510766029322
 30
0.0
  0
VERTEX
  5
B9
330
B4
100
AcDbEntity
  8
Layer 1
 62
     7
420
 16777215
370
    25
100
AcDbVertex
100
AcDb2dVertex
 10
142.8281792242603
 20
-95.9551076602937
 30
0.0
  0
SEQEND
  5
BA
330
B4
100
AcDbEntity
  8
Layer 1
 62
     7
420
 16777215
370
    25
  0
ENDBLK
  5
B3
330
B0
100
AcDbEntity
  8
0
100
AcDbBlockEnd
  0
BLOCK
  5
BD
330
BB
100
AcDbEntity
  8
0
100
AcDbBlockBegin
  2
block 13
 70
     0
 10
0.0
 20
0.0
 30
0.0
  3
block 13
  1

  0
POLYLINE
  5
BF
330
BB
100
AcDbEntity
  8
Layer 1
 62
     7
420
 16777215
370
    25
100
AcDb2dPolyline
 66
     1
 10
0.0
 20
0.0
 30
0.0
  0
VERTEX
  5
C0
330
BF
100
AcDbEntity
  8
Layer 1
 62
     7
420
 16777215
370
    25
100
AcDbVertex
100
AcDb2dVertex
 10
161.8781792194978
 20
-95.9551076602937
 30
0.0
  0
VERTEX
  5
C1
330
BF
100
AcDbEntity
  8
Layer 1
 62
     7
420
 16777215
370
    25
100
AcDbVertex
100
AcDb2dVertex
 10
175.878179219497
 20
-95.9551076602937
 30
0.0
  0
VERTEX
  5
C2
330
BF
100
AcDbEntity
  8
Layer 1
 62
     7
420
 16777215
370
    25
100
AcDbVertex
100
AcDb2dVertex
 10
175.878179219497
 20
-81.95510766029322
 30
0.0
  0
VERTEX
  5
C3
330
BF
100
AcDbEntity
  8
Layer 1
 62
     7
420
 16777215
370
    25
100
AcDbVertex
100
AcDb2dVertex
 10
161.8781792194978
 20
-81.95510766029322
 30
0.0
  0
VERTEX
  5
C4
330
BF
100
AcDbEntity
  8
Layer 1
 62
     7
420
 16777215
370
    25
100
AcDbVertex
100
AcDb2dVertex
 10
161.8781792194978
 20
-95.9551076602937
 30
0.0
  0
SEQEND
  5
C5
330
BF
100
AcDbEntity
  8
Layer 1
 62
     7
420
 16777215
370
    25
  0
ENDBLK
  5
BE
330
BB
100
AcDbEntity
  8
0
100
AcDbBlockEnd
  0
BLOCK
  5
C8
330
C6
100
AcDbEntity
  8
0
100
AcDbBlockBegin
  2
block 14
 70
     0
 10
0.0
 20
0.0
 30
0.0
  3
block 14
  1

  0
POLYLINE
  5
CA
330
C6
100
AcDbEntity
  8
Layer 1
 62
     7
420
 16777215
370
    25
100
AcDb2dPolyline
 66
     1
 10
0.0
 20
0.0
 30
0.0
  0
VERTEX
  5
CB
330
CA
100
AcDbEntity
  8
Layer 1
 62
     7
420
 16777215
370
    25
100
AcDbVertex
100
AcDb2dVertex
 10
180.9281792147353
 20
-95.9551076602937
 30
0.0
  0
VERTEX
  5
CC
330
CA
100
AcDbEntity
  8
Layer 1
 62
     7
420
 16777215
370
    25
100
AcDbVertex
100
AcDb2dVertex
 10
194.9281792147345
 20
-95.9551076602937
 30
0.0
  0
VERTEX
  5
CD
330
CA
100
AcDbEntity
  8
Layer 1
 62
     7
420
 16777215
370
    25
100
AcDbVertex
100
AcDb2dVertex
 10
194.9281792147345
 20
-81.95510766029322
 30
0.0
  0
VERTEX
  5
CE
330
CA
100
AcDbEntity
  8
Layer 1
 62
     7
420
 16777215
370
    25
100
AcDbVertex
100
AcDb2dVertex
 10
180.9281792147353
 20
-81.95510766029322
 30
0.0
  0
VERTEX
  5
CF
330
CA
100
AcDbEntity
  8
Layer 1
 62
     7
420
 16777215
370
    25
100
AcDbVertex
100
AcDb2dVertex
 10
180.9281792147353
 20
-95.9551076602937
 30
0.0
  0
SEQEND
  5
D0
330
CA
100
AcDbEntity
  8
Layer 1
 62
     7
420
 16777215
370
    25
  0
ENDBLK
  5
C9
330
C6
100
AcDbEntity
  8
0
100
AcDbBlockEnd
  0
BLOCK
  5
D3
330
D1
100
AcDbEntity
  8
0
100
AcDbBlockBegin
  2
block 15
 70
     0
 10
0.0
 20
0.0
 30
0.0
  3
block 15
  1

  0
POLYLINE
  5
D5
330
D1
100
AcDbEntity
  8
Layer 1
 62
     7
420
 16777215
370
    25
100
AcDb2dPolyline
 66
     1
 10
0.0
 20
0.0
 30
0.0
  0
VERTEX
  5
D6
330
D5
100
AcDbEntity
  8
Layer 1
 62
     7
420
 16777215
370
    25
100
AcDbVertex
100
AcDb2dVertex
 10
71.39067924330975
 20
-115.0051076602929
 30
0.0
  0
VERTEX
  5
D7
330
D5
100
AcDbEntity
  8
Layer 1
 62
     7
420
 16777215
370
    25
100
AcDbVertex
100
AcDb2dVertex
 10
85.39067924331023
 20
-115.0051076602929
 30
0.0
  0
VERTEX
  5
D8
330
D5
100
AcDbEntity
  8
Layer 1
 62
     7
420
 16777215
370
    25
100
AcDbVertex
100
AcDb2dVertex
 10
85.39067924331023
 20
-101.0051076602937
 30
0.0
  0
VERTEX
  5
D9
330
D5
100
AcDbEntity
  8
Layer 1
 62
     7
420
 16777215
370
    25
100
AcDbVertex
100
AcDb2dVertex
 10
71.39067924330975
 20
-101.0051076602937
 30
0.0
  0
VERTEX
  5
DA
330
D5
100
AcDbEntity
  8
Layer 1
 62
     7
420
 16777215
370
    25
100
AcDbVertex
100
AcDb2dVertex
 10
71.39067924330975
 20
-115.0051076602929
 30
0.0
  0
SEQEND
  5
DB
330
D5
100
AcDbEntity
  8
Layer 1
 62
     7
420
 16777215
370
    25
  0
ENDBLK
  5
D4
330
D1
100
AcDbEntity
  8
0
100
AcDbBlockEnd
  0
BLOCK
  5
DE
330
DC
100
AcDbEntity
  8
0
100
AcDbBlockBegin
  2
block 16
 70
     0
 10
0.0
 20
0.0
 30
0.0
  3
block 16
  1

  0
POLYLINE
  5
E0
330
DC
100
AcDbEntity
  8
Layer 1
 62
     7
420
 16777215
370
    25
100
AcDb2dPolyline
 66
     1
 10
0.0
 20
0.0
 30
0.0
  0
VERTEX
  5
E1
330
E0
100
AcDbEntity
  8
Layer 1
 62
     7
420
 16777215
370
    25
100
AcDbVertex
100
AcDb2dVertex
 10
90.44067923854724
 20
-115.0051076602929
 30
0.0
  0
VERTEX
  5
E2
330
E0
100
AcDbEntity
  8
Layer 1
 62
     7
420
 16777215
370
    25
100
AcDbVertex
100
AcDb2dVertex
 10
104.4406792385474
 20
-115.0051076602929
 30
0.0
  0
VERTEX
  5
E3
330
E0
100
AcDbEntity
  8
Layer 1
 62
     7
420
 16777215
370
    25
100
AcDbVertex
100
AcDb2dVertex
 10
104.4406792385474
 20
-101.0051076602937
 30
0.0
  0
VERTEX
  5
E4
330
E0
100
AcDbEntity
  8
Layer 1
 62
     7
420
 16777215
370
    25
100
AcDbVertex
100
AcDb2dVertex
 10
90.44067923854724
 20
-101.0051076602937
 30
0.0
  0
VERTEX
  5
E5
330
E0
100
AcDbEntity
  8
Layer 1
 62
     7
420
 16777215
370
    25
100
AcDbVertex
100
AcDb2dVertex
 10
90.44067923854724
 20
-115.0051076602929
 30
0.0
  0
SEQEND
  5
E6
330
E0
100
AcDbEntity
  8
Layer 1
 62
     7
420
 16777215
370
    25
  0
ENDBLK
  5
DF
330
DC
100
AcDbEntity
  8
0
100
AcDbBlockEnd
  0
BLOCK
  5
E9
330
E7
100
AcDbEntity
  8
0
100
AcDbBlockBegin
  2
block 17
 70
     0
 10
0.0
 20
0.0
 30
0.0
  3
block 17
  1

  0
POLYLINE
  5
EB
330
E7
100
AcDbEntity
  8
Layer 1
 62
     7
420
 16777215
370
    25
100
AcDb2dPolyline
 66
     1
 10
0.0
 20
0.0
 30
0.0
  0
VERTEX
  5
EC
330
EB
100
AcDbEntity
  8
Layer 1
 62
     7
420
 16777215
370
    25
100
AcDbVertex
100
AcDb2dVertex
 10
109.4906792337844
 20
-115.0051076602929
 30
0.0
  0
VERTEX
  5
ED
330
EB
100
AcDbEntity
  8
Layer 1
 62
     7
420
 16777215
370
    25
100
AcDbVertex
100
AcDb2dVertex
 10
123.4906792337849
 20
-115.0051076602929
 30
0.0
  0
VERTEX
  5
EE
330
EB
100
AcDbEntity
  8
Layer 1
 62
     7
420
 16777215
370
    25
100
AcDbVertex
100
AcDb2dVertex
 10
123.4906792337849
 20
-101.0051076602937
 30
0.0
  0
VERTEX
  5
EF
330
EB
100
AcDbEntity
  8
Layer 1
 62
     7
420
 16777215
370
    25
100
AcDbVertex
100
AcDb2dVertex
 10
109.4906792337844
 20
-101.0051076602937
 30
0.0
  0
VERTEX
  5
F0
330
EB
100
AcDbEntity
  8
Layer 1
 62
     7
420
 16777215
370
    25
100
AcDbVertex
100
AcDb2dVertex
 10
109.4906792337844
 20
-115.0051076602929
 30
0.0
  0
SEQEND
  5
F1
330
EB
100
AcDbEntity
  8
Layer 1
 62
     7
420
 16777215
370
    25
  0
ENDBLK
  5
EA
330
E7
100
AcDbEntity
  8
0
100
AcDbBlockEnd
  0
BLOCK
  5
F4
330
F2
100
AcDbEntity
  8
0
100
AcDbBlockBegin
  2
block 18
 70
     0
 10
0.0
 20
0.0
 30
0.0
  3
block 18
  1

  0
POLYLINE
  5
F6
330
F2
100
AcDbEntity
  8
Layer 1
 62
     7
420
 16777215
370
    25
100
AcDb2dPolyline
 66
     1
 10
0.0
 20
0.0
 30
0.0
  0
VERTEX
  5
F7
330
F6
100
AcDbEntity
  8
Layer 1
 62
     7
420
 16777215
370
    25
100
AcDbVertex
100
AcDb2dVertex
 10
128.5406792290219
 20
-115.0051076602929
 30
0.0
  0
VERTEX
  5
F8
330
F6
100
AcDbEntity
  8
Layer 1
 62
     7
420
 16777215
370
    25
100
AcDbVertex
100
AcDb2dVertex
 10
142.5406792290224
 20
-115.0051076602929
 30
0.0
  0
VERTEX
  5
F9
330
F6
100
AcDbEntity
  8
Layer 1
 62
     7
420
 16777215
370
    25
100
AcDbVertex
100
AcDb2dVertex
 10
142.5406792290224
 20
-101.0051076602937
 30
0.0
  0
VERTEX
  5
FA
330
F6
100
AcDbEntity
  8
Layer 1
 62
     7
420
 16777215
370
    25
100
AcDbVertex
100
AcDb2dVertex
 10
128.5406792290219
 20
-101.0051076602937
 30
0.0
  0
VERTEX
  5
FB
330
F6
100
AcDbEntity
  8
Layer 1
 62
     7
420
 16777215
370
    25
100
AcDbVertex
100
AcDb2dVertex
 10
128.5406792290219
 20
-115.0051076602929
 30
0.0
  0
SEQEND
  5
FC
330
F6
100
AcDbEntity
  8
Layer 1
 62
     7
420
 16777215
370
    25
  0
ENDBLK
  5
F5
330
F2
100
AcDbEntity
  8
0
100
AcDbBlockEnd
  0
BLOCK
  5
FF
330
FD
100
AcDbEntity
  8
0
100
AcDbBlockBegin
  2
block 19
 70
     0
 10
0.0
 20
0.0
 30
0.0
  3
block 19
  1

  0
POLYLINE
  5
101
330
FD
100
AcDbEntity
  8
Layer 1
 62
     7
420
 16777215
370
    25
100
AcDb2dPolyline
 66
     1
 10
0.0
 20
0.0
 30
0.0
  0
VERTEX
  5
102
330
101
100
AcDbEntity
  8
Layer 1
 62
     7
420
 16777215
370
    25
100
AcDbVertex
100
AcDb2dVertex
 10
147.5906792242594
 20
-115.0051076602929
 30
0.0
  0
VERTEX
  5
103
330
101
100
AcDbEntity
  8
Layer 1
 62
     7
420
 16777215
370
    25
100
AcDbVertex
100
AcDb2dVertex
 10
161.5906792242599
 20
-115.0051076602929
 30
0.0
  0
VERTEX
  5
104
330
101
100
AcDbEntity
  8
Layer 1
 62
     7
420
 16777215
370
    25
100
AcDbVertex
100
AcDb2dVertex
 10
161.5906792242599
 20
-101.0051076602937
 30
0.0
  0
VERTEX
  5
105
330
101
100
AcDbEntity
  8
Layer 1
 62
     7
420
 16777215
370
    25
100
AcDbVertex
100
AcDb2dVertex
 10
147.5906792242594
 20
-101.0051076602937
 30
0.0
  0
VERTEX
  5
106
330
101
100
AcDbEntity
  8
Layer 1
 62
     7
420
 16777215
370
    25
100
AcDbVertex
100
AcDb2dVertex
 10
147.5906792242594
 20
-115.0051076602929
 30
0.0
  0
SEQEND
  5
107
330
101
100
AcDbEntity
  8
Layer 1
 62
     7
420
 16777215
370
    25
  0
ENDBLK
  5
100
330
FD
100
AcDbEntity
  8
0
100
AcDbBlockEnd
  0
BLOCK
  5
10A
330
108
100
AcDbEntity
  8
0
100
AcDbBlockBegin
  2
block 20
 70
     0
 10
0.0
 20
0.0
 30
0.0
  3
block 20
  1

  0
POLYLINE
  5
10C
330
108
100
AcDbEntity
  8
Layer 1
 62
     7
420
 16777215
370
    25
100
AcDb2dPolyline
 66
     1
 10
0.0
 20
0.0
 30
0.0
  0
VERTEX
  5
10D
330
10C
100
AcDbEntity
  8
Layer 1
 62
     7
420
 16777215
370
    25
100
AcDbVertex
100
AcDb2dVertex
 10
166.6406792194969
 20
-115.0051076602929
 30
0.0
  0
VERTEX
  5
10E
330
10C
100
AcDbEntity
  8
Layer 1
 62
     7
420
 16777215
370
    25
100
AcDbVertex
100
AcDb2dVertex
 10
180.6406792194974
 20
-115.0051076602929
 30
0.0
  0
VERTEX
  5
10F
330
10C
100
AcDbEntity
  8
Layer 1
 62
     7
420
 16777215
370
    25
100
AcDbVertex
100
AcDb2dVertex
 10
180.6406792194974
 20
-101.0051076602937
 30
0.0
  0
VERTEX
  5
110
330
10C
100
AcDbEntity
  8
Layer 1
 62
     7
420
 16777215
370
    25
100
AcDbVertex
100
AcDb2dVertex
 10
166.6406792194969
 20
-101.0051076602937
 30
0.0
  0
VERTEX
  5
111
330
10C
100
AcDbEntity
  8
Layer 1
 62
     7
420
 16777215
370
    25
100
AcDbVertex
100
AcDb2dVertex
 10
166.6406792194969
 20
-115.0051076602929
 30
0.0
  0
SEQEND
  5
112
330
10C
100
AcDbEntity
  8
Layer 1
 62
     7
420
 16777215
370
    25
  0
ENDBLK
  5
10B
330
108
100
AcDbEntity
  8
0
100
AcDbBlockEnd
  0
BLOCK
  5
138
330
136
100
AcDbEntity
  8
0
100
AcDbBlockBegin
  2
block 21
 70
     0
 10
0.0
 20
0.0
 30
0.0
  3
block 21
  1

  0
POLYLINE
  5
13A
330
136
100
AcDbEntity
  8
Layer 1
 62
     7
420
 16777215
370
    25
100
AcDb2dPolyline
 66
     1
 10
0.0
 20
0.0
 30
0.0
  0
VERTEX
  5
13B
330
13A
100
AcDbEntity
  8
Layer 1
 62
     7
420
 16777215
370
    25
100
AcDbVertex
100
AcDb2dVertex
 10
80.91567924330984
 20
-134.0551076602931
 30
0.0
  0
VERTEX
  5
13C
330
13A
100
AcDbEntity
  8
Layer 1
 62
     7
420
 16777215
370
    25
100
AcDbVertex
100
AcDb2dVertex
 10
94.91567924331034
 20
-134.0551076602931
 30
0.0
  0
VERTEX
  5
13D
330
13A
100
AcDbEntity
  8
Layer 1
 62
     7
420
 16777215
370
    25
100
AcDbVertex
100
AcDb2dVertex
 10
94.91567924331034
 20
-120.0551076602939
 30
0.0
  0
VERTEX
  5
13E
330
13A
100
AcDbEntity
  8
Layer 1
 62
     7
420
 16777215
370
    25
100
AcDbVertex
100
AcDb2dVertex
 10
80.91567924330984
 20
-120.0551076602939
 30
0.0
  0
VERTEX
  5
13F
330
13A
100
AcDbEntity
  8
Layer 1
 62
     7
420
 16777215
370
    25
100
AcDbVertex
100
AcDb2dVertex
 10
80.91567924330984
 20
-134.0551076602931
 30
0.0
  0
SEQEND
  5
140
330
13A
100
AcDbEntity
  8
Layer 1
 62
     7
420
 16777215
370
    25
  0
ENDBLK
  5
139
330
136
100
AcDbEntity
  8
0
100
AcDbBlockEnd
  0
BLOCK
  5
143
330
141
100
AcDbEntity
  8
0
100
AcDbBlockBegin
  2
block 22
 70
     0
 10
0.0
 20
0.0
 30
0.0
  3
block 22
  1

  0
POLYLINE
  5
145
330
141
100
AcDbEntity
  8
Layer 1
 62
     7
420
 16777215
370
    25
100
AcDb2dPolyline
 66
     1
 10
0.0
 20
0.0
 30
0.0
  0
VERTEX
  5
146
330
145
100
AcDbEntity
  8
Layer 1
 62
     7
420
 16777215
370
    25
100
AcDbVertex
100
AcDb2dVertex
 10
99.96567923854733
 20
-134.0551076602931
 30
0.0
  0
VERTEX
  5
147
330
145
100
AcDbEntity
  8
Layer 1
 62
     7
420
 16777215
370
    25
100
AcDbVertex
100
AcDb2dVertex
 10
113.9656792385481
 20
-134.0551076602931
 30
0.0
  0
VERTEX
  5
148
330
145
100
AcDbEntity
  8
Layer 1
 62
     7
420
 16777215
370
    25
100
AcDbVertex
100
AcDb2dVertex
 10
113.9656792385481
 20
-120.0551076602939
 30
0.0
  0
VERTEX
  5
149
330
145
100
AcDbEntity
  8
Layer 1
 62
     7
420
 16777215
370
    25
100
AcDbVertex
100
AcDb2dVertex
 10
99.96567923854733
 20
-120.0551076602939
 30
0.0
  0
VERTEX
  5
14A
330
145
100
AcDbEntity
  8
Layer 1
 62
     7
420
 16777215
370
    25
100
AcDbVertex
100
AcDb2dVertex
 10
99.96567923854733
 20
-134.0551076602931
 30
0.0
  0
SEQEND
  5
14B
330
145
100
AcDbEntity
  8
Layer 1
 62
     7
420
 16777215
370
    25
  0
ENDBLK
  5
144
330
141
100
AcDbEntity
  8
0
100
AcDbBlockEnd
  0
BLOCK
  5
14E
330
14C
100
AcDbEntity
  8
0
100
AcDbBlockBegin
  2
block 23
 70
     0
 10
0.0
 20
0.0
 30
0.0
  3
block 23
  1

  0
POLYLINE
  5
150
330
14C
100
AcDbEntity
  8
Layer 1
 62
     7
420
 16777215
370
    25
100
AcDb2dPolyline
 66
     1
 10
0.0
 20
0.0
 30
0.0
  0
VERTEX
  5
151
330
150
100
AcDbEntity
  8
Layer 1
 62
     7
420
 16777215
370
    25
100
AcDbVertex
100
AcDb2dVertex
 10
119.0156792337852
 20
-134.0551076602931
 30
0.0
  0
VERTEX
  5
152
330
150
100
AcDbEntity
  8
Layer 1
 62
     7
420
 16777215
370
    25
100
AcDbVertex
100
AcDb2dVertex
 10
133.0156792337856
 20
-134.0551076602931
 30
0.0
  0
VERTEX
  5
153
330
150
100
AcDbEntity
  8
Layer 1
 62
     7
420
 16777215
370
    25
100
AcDbVertex
100
AcDb2dVertex
 10
133.0156792337856
 20
-120.0551076602939
 30
0.0
  0
VERTEX
  5
154
330
150
100
AcDbEntity
  8
Layer 1
 62
     7
420
 16777215
370
    25
100
AcDbVertex
100
AcDb2dVertex
 10
119.0156792337852
 20
-120.0551076602939
 30
0.0
  0
VERTEX
  5
155
330
150
100
AcDbEntity
  8
Layer 1
 62
     7
420
 16777215
370
    25
100
AcDbVertex
100
AcDb2dVertex
 10
119.0156792337852
 20
-134.0551076602931
 30
0.0
  0
SEQEND
  5
156
330
150
100
AcDbEntity
  8
Layer 1
 62
     7
420
 16777215
370
    25
  0
ENDBLK
  5
14F
330
14C
100
AcDbEntity
  8
0
100
AcDbBlockEnd
  0
BLOCK
  5
159
330
157
100
AcDbEntity
  8
0
100
AcDbBlockBegin
  2
block 24
 70
     0
 10
0.0
 20
0.0
 30
0.0
  3
block 24
  1

  0
POLYLINE
  5
15B
330
157
100
AcDbEntity
  8
Layer 1
 62
     7
420
 16777215
370
    25
100
AcDb2dPolyline
 66
     1
 10
0.0
 20
0.0
 30
0.0
  0
VERTEX
  5
15C
330
15B
100
AcDbEntity
  8
Layer 1
 62
     7
420
 16777215
370
    25
100
AcDbVertex
100
AcDb2dVertex
 10
138.0656792290227
 20
-134.0551076602931
 30
0.0
  0
VERTEX
  5
15D
330
15B
100
AcDbEntity
  8
Layer 1
 62
     7
420
 16777215
370
    25
100
AcDbVertex
100
AcDb2dVertex
 10
152.0656792290231
 20
-134.0551076602931
 30
0.0
  0
VERTEX
  5
15E
330
15B
100
AcDbEntity
  8
Layer 1
 62
     7
420
 16777215
370
    25
100
AcDbVertex
100
AcDb2dVertex
 10
152.0656792290231
 20
-120.0551076602939
 30
0.0
  0
VERTEX
  5
15F
330
15B
100
AcDbEntity
  8
Layer 1
 62
     7
420
 16777215
370
    25
100
AcDbVertex
100
AcDb2dVertex
 10
138.0656792290227
 20
-120.0551076602939
 30
0.0
  0
VERTEX
  5
160
330
15B
100
AcDbEntity
  8
Layer 1
 62
     7
420
 16777215
370
    25
100
AcDbVertex
100
AcDb2dVertex
 10
138.0656792290227
 20
-134.0551076602931
 30
0.0
  0
SEQEND
  5
161
330
15B
100
AcDbEntity
  8
Layer 1
 62
     7
420
 16777215
370
    25
  0
ENDBLK
  5
15A
330
157
100
AcDbEntity
  8
0
100
AcDbBlockEnd
  0
BLOCK
  5
16F
330
16D
100
AcDbEntity
  8
0
100
AcDbBlockBegin
  2
block 25
 70
     0
 10
0.0
 20
0.0
 30
0.0
  3
block 25
  1

  0
POLYLINE
  5
171
330
16D
100
AcDbEntity
  8
Layer 1
 62
     7
420
 16777215
370
    25
100
AcDb2dPolyline
 66
     1
 10
0.0
 20
0.0
 30
0.0
  0
VERTEX
  5
172
330
171
100
AcDbEntity
  8
Layer 1
 62
     7
420
 16777215
370
    25
100
AcDbVertex
100
AcDb2dVertex
 10
209.5031758137365
 20
-120.0551042634626
 30
0.0
  0
VERTEX
  5
173
330
171
100
AcDbEntity
  8
Layer 1
 62
     7
420
 16777215
370
    25
100
AcDbVertex
100
AcDb2dVertex
 10
209.5031758137365
 20
-121.0551078235967
 30
0.0
  0
VERTEX
  5
174
330
171
100
AcDbEntity
  8
Layer 1
 62
     7
420
 16777215
370
    25
100
AcDbVertex
100
AcDb2dVertex
 10
208.397429354052
 20
-121.0551078235967
 30
0.0
  0
VERTEX
  5
175
330
171
100
AcDbEntity
  8
Layer 1
 62
     7
420
 16777215
370
    25
100
AcDbVertex
100
AcDb2dVertex
 10
208.397429354052
 20
-135.0551146017808
 30
0.0
  0
VERTEX
  5
176
330
171
100
AcDbEntity
  8
Layer 1
 62
     7
420
 16777215
370
    25
100
AcDbVertex
100
AcDb2dVertex
 10
215.1474264701488
 20
-135.0551146017808
 30
0.0
  0
VERTEX
  5
177
330
171
100
AcDbEntity
  8
Layer 1
 62
     7
420
 16777215
370
    25
100
AcDbVertex
100
AcDb2dVertex
 10
215.1474264701488
 20
-134.0551110416467
 30
0.0
  0
VERTEX
  5
178
330
171
100
AcDbEntity
  8
Layer 1
 62
     7
420
 16777215
370
    25
100
AcDbVertex
100
AcDb2dVertex
 10
223.5031825919205
 20
-134.0551110416467
 30
0.0
  0
VERTEX
  5
179
330
171
100
AcDbEntity
  8
Layer 1
 62
     7
420
 16777215
370
    25
100
AcDbVertex
100
AcDb2dVertex
 10
223.5031825919205
 20
-120.0551042634626
 30
0.0
  0
VERTEX
  5
17A
330
171
100
AcDbEntity
  8
Layer 1
 62
     7
420
 16777215
370
    25
100
AcDbVertex
100
AcDb2dVertex
 10
209.5031758137365
 20
-120.0551042634626
 30
0.0
  0
SEQEND
  5
17B
330
171
100
AcDbEntity
  8
Layer 1
 62
     7
420
 16777215
370
    25
  0
POLYLINE
  5
17C
330
16D
100
AcDbEntity
  8
Layer 1
 62
     7
420
 16777215
370
    25
100
AcDb2dPolyline
 66
     1
 10
0.0
 20
0.0
 30
0.0
  0
VERTEX
  5
17D
330
17C
100
AcDbEntity
  8
Layer 1
 62
     7
420
 16777215
370
    25
100
AcDbVertex
100
AcDb2dVertex
 10
197.309432598469
 20
-120.0551042634626
 30
0.0
  0
VERTEX
  5
17E
330
17C
100
AcDbEntity
  8
Layer 1
 62
     7
420
 16777215
370
    25
100
AcDbVertex
100
AcDb2dVertex
 10
192.8344258179037
 20
-120.0551042634626
 30
0.0
  0
VERTEX
  5
17F
330
17C
100
AcDbEntity
  8
Layer 1
 62
     7
420
 16777215
370
    25
100
AcDbVertex
100
AcDb2dVertex
 10
190.453175818499
 20
-120.0551042634626
 30
0.0
  0
VERTEX
  5
180
330
17C
100
AcDbEntity
  8
Layer 1
 62
     7
420
 16777215
370
    25
100
AcDbVertex
100
AcDb2dVertex
 10
183.3094258202849
 20
-120.0551042634626
 30
0.0
  0
VERTEX
  5
181
330
17C
100
AcDbEntity
  8
Layer 1
 62
     7
420
 16777215
370
    25
100
AcDbVertex
100
AcDb2dVertex
 10
183.3094258202849
 20
-134.0551110416467
 30
0.0
  0
VERTEX
  5
182
330
17C
100
AcDbEntity
  8
Layer 1
 62
     7
420
 16777215
370
    25
100
AcDbVertex
100
AcDb2dVertex
 10
184.5214319438426
 20
-134.0551110416467
 30
0.0
  0
VERTEX
  5
183
330
17C
100
AcDbEntity
  8
Layer 1
 62
     7
420
 16777215
370
    25
100
AcDbVertex
100
AcDb2dVertex
 10
184.5214319438426
 20
-135.0551146017808
 30
0.0
  0
VERTEX
  5
184
330
17C
100
AcDbEntity
  8
Layer 1
 62
     7
420
 16777215
370
    25
100
AcDbVertex
100
AcDb2dVertex
 10
191.2714290599394
 20
-135.0551146017808
 30
0.0
  0
VERTEX
  5
185
330
17C
100
AcDbEntity
  8
Layer 1
 62
     7
420
 16777215
370
    25
100
AcDbVertex
100
AcDb2dVertex
 10
191.2714290599394
 20
-134.0551110416467
 30
0.0
  0
VERTEX
  5
186
330
17C
100
AcDbEntity
  8
Layer 1
 62
     7
420
 16777215
370
    25
100
AcDbVertex
100
AcDb2dVertex
 10
192.8344258179037
 20
-134.0551110416467
 30
0.0
  0
VERTEX
  5
187
330
17C
100
AcDbEntity
  8
Layer 1
 62
     7
420
 16777215
370
    25
100
AcDbVertex
100
AcDb2dVertex
 10
197.309432598469
 20
-134.0551110416467
 30
0.0
  0
VERTEX
  5
188
330
17C
100
AcDbEntity
  8
Layer 1
 62
     7
420
 16777215
370
    25
100
AcDbVertex
100
AcDb2dVertex
 10
204.453182596683
 20
-134.0551110416467
 30
0.0
  0
VERTEX
  5
189
330
17C
100
AcDbEntity
  8
Layer 1
 62
     7
420
 16777215
370
    25
100
AcDbVertex
100
AcDb2dVertex
 10
206.8344325960877
 20
-134.0551110416467
 30
0.0
  0
VERTEX
  5
18A
330
17C
100
AcDbEntity
  8
Layer 1
 62
     7
420
 16777215
370
    25
100
AcDbVertex
100
AcDb2dVertex
 10
206.8344325960877
 20
-120.0551042634626
 30
0.0
  0
VERTEX
  5
18B
330
17C
100
AcDbEntity
  8
Layer 1
 62
     7
420
 16777215
370
    25
100
AcDbVertex
100
AcDb2dVertex
 10
204.453182596683
 20
-120.0551042634626
 30
0.0
  0
VERTEX
  5
18C
330
17C
100
AcDbEntity
  8
Layer 1
 62
     7
420
 16777215
370
    25
100
AcDbVertex
100
AcDb2dVertex
 10
197.309432598469
 20
-120.0551042634626
 30
0.0
  0
SEQEND
  5
18D
330
17C
100
AcDbEntity
  8
Layer 1
 62
     7
420
 16777215
370
    25
  0
ENDBLK
  5
170
330
16D
100
AcDbEntity
  8
0
100
AcDbBlockEnd
  0
ENDSEC
  0
SECTION
  2
ENTITIES
  0
INSERT
  5
43
330
1F
100
AcDbEntity
  8
Layer 1
100
AcDbBlockReference
  2
block 2
 10
0.0
 20
0.0
 30
0.0
  0
INSERT
  5
4E
330
1F
100
AcDbEntity
  8
Layer 1
100
AcDbBlockReference
  2
block 3
 10
0.0
 20
0.0
 30
0.0
  0
INSERT
  5
59
330
1F
100
AcDbEntity
  8
Layer 1
100
AcDbBlockReference
  2
block 4
 10
0.0
 20
0.0
 30
0.0
  0
INSERT
  5
64
330
1F
100
AcDbEntity
  8
Layer 1
100
AcDbBlockReference
  2
block 5
 10
0.0
 20
0.0
 30
0.0
  0
INSERT
  5
6F
330
1F
100
AcDbEntity
  8
Layer 1
100
AcDbBlockReference
  2
block 6
 10
0.0
 20
0.0
 30
0.0
  0
INSERT
  5
7A
330
1F
100
AcDbEntity
  8
Layer 1
100
AcDbBlockReference
  2
block 7
 10
0.0
 20
0.0
 30
0.0
  0
INSERT
  5
85
330
1F
100
AcDbEntity
  8
Layer 1
100
AcDbBlockReference
  2
block 8
 10
0.0
 20
0.0
 30
0.0
  0
INSERT
  5
90
330
1F
100
AcDbEntity
  8
Layer 1
100
AcDbBlockReference
  2
block 9
 10
0.0
 20
0.0
 30
0.0
  0
INSERT
  5
9B
330
1F
100
AcDbEntity
  8
Layer 1
100
AcDbBlockReference
  2
block 10
 10
0.0
 20
0.0
 30
0.0
  0
INSERT
  5
A6
330
1F
100
AcDbEntity
  8
Layer 1
100
AcDbBlockReference
  2
block 11
 10
0.0
 20
0.0
 30
0.0
  0
INSERT
  5
B1
330
1F
100
AcDbEntity
  8
Layer 1
100
AcDbBlockReference
  2
block 12
 10
0.0
 20
0.0
 30
0.0
  0
INSERT
  5
BC
330
1F
100
AcDbEntity
  8
Layer 1
100
AcDbBlockReference
  2
block 13
 10
0.0
 20
0.0
 30
0.0
  0
INSERT
  5
C7
330
1F
100
AcDbEntity
  8
Layer 1
100
AcDbBlockReference
  2
block 14
 10
0.0
 20
0.0
 30
0.0
  0
INSERT
  5
D2
330
1F
100
AcDbEntity
  8
Layer 1
100
AcDbBlockReference
  2
block 15
 10
0.0
 20
0.0
 30
0.0
  0
INSERT
  5
DD
330
1F
100
AcDbEntity
  8
Layer 1
100
AcDbBlockReference
  2
block 16
 10
0.0
 20
0.0
 30
0.0
  0
INSERT
  5
E8
330
1F
100
AcDbEntity
  8
Layer 1
100
AcDbBlockReference
  2
block 17
 10
0.0
 20
0.0
 30
0.0
  0
INSERT
  5
F3
330
1F
100
AcDbEntity
  8
Layer 1
100
AcDbBlockReference
  2
block 18
 10
0.0
 20
0.0
 30
0.0
  0
INSERT
  5
FE
330
1F
100
AcDbEntity
  8
Layer 1
100
AcDbBlockReference
  2
block 19
 10
0.0
 20
0.0
 30
0.0
  0
INSERT
  5
109
330
1F
100
AcDbEntity
  8
Layer 1
100
AcDbBlockReference
  2
block 20
 10
0.0
 20
0.0
 30
0.0
  0
POLYLINE
  5
113
330
1F
100
AcDbEntity
  8
Layer 1
 62
     7
420
 16777215
370
    25
100
AcDb2dPolyline
 66
     1
 10
0.0
 20
0.0
 30
0.0
  0
VERTEX
  5
114
330
113
100
AcDbEntity
  8
Layer 1
 62
     7
420
 16777215
370
    25
100
AcDbVertex
100
AcDb2dVertex
 10
221.1219325925158
 20
-105.4801110487904
 30
0.0
  0
VERTEX
  5
115
330
113
100
AcDbEntity
  8
Layer 1
 62
     7
420
 16777215
370
    25
100
AcDbVertex
100
AcDb2dVertex
 10
221.1219325925158
 20
-91.48010427060603
 30
0.0
  0
VERTEX
  5
116
330
113
100
AcDbEntity
  8
Layer 1
 62
     7
420
 16777215
370
    25
100
AcDbVertex
100
AcDb2dVertex
 10
218.7406825931112
 20
-91.48010427060603
 30
0.0
  0
VERTEX
  5
117
330
113
100
AcDbEntity
  8
Layer 1
 62
     7
420
 16777215
370
    25
100
AcDbVertex
100
AcDb2dVertex
 10
218.7406825931112
 20
-89.91710751264145
 30
0.0
  0
VERTEX
  5
118
330
113
100
AcDbEntity
  8
Layer 1
 62
     7
420
 16777215
370
    25
100
AcDbVertex
100
AcDb2dVertex
 10
220.1219290323817
 20
-89.91710751264145
 30
0.0
  0
VERTEX
  5
119
330
113
100
AcDbEntity
  8
Layer 1
 62
     7
420
 16777215
370
    25
100
AcDbVertex
100
AcDb2dVertex
 10
220.1219290323817
 20
-83.16711039654498
 30
0.0
  0
VERTEX
  5
11A
330
113
100
AcDbEntity
  8
Layer 1
 62
     7
420
 16777215
370
    25
100
AcDbVertex
100
AcDb2dVertex
 10
218.7406825931112
 20
-83.16711039654498
 30
0.0
  0
VERTEX
  5
11B
330
113
100
AcDbEntity
  8
Layer 1
 62
     7
420
 16777215
370
    25
100
AcDbVertex
100
AcDb2dVertex
 10
218.7406825931112
 20
-81.9551042729873
 30
0.0
  0
VERTEX
  5
11C
330
113
100
AcDbEntity
  8
Layer 1
 62
     7
420
 16777215
370
    25
100
AcDbVertex
100
AcDb2dVertex
 10
204.7406758149271
 20
-81.9551042729873
 30
0.0
  0
VERTEX
  5
11D
330
113
100
AcDbEntity
  8
Layer 1
 62
     7
420
 16777215
370
    25
100
AcDbVertex
100
AcDb2dVertex
 10
204.7406758149271
 20
-95.95511105117131
 30
0.0
  0
VERTEX
  5
11E
330
113
100
AcDbEntity
  8
Layer 1
 62
     7
420
 16777215
370
    25
100
AcDbVertex
100
AcDb2dVertex
 10
207.1219258143318
 20
-95.95511105117131
 30
0.0
  0
VERTEX
  5
11F
330
113
100
AcDbEntity
  8
Layer 1
 62
     7
420
 16777215
370
    25
100
AcDbVertex
100
AcDb2dVertex
 10
207.1219258143318
 20
-101.0051042682251
 30
0.0
  0
VERTEX
  5
120
330
113
100
AcDbEntity
  8
Layer 1
 62
     7
420
 16777215
370
    25
100
AcDbVertex
100
AcDb2dVertex
 10
199.6906825978736
 20
-101.0051042682251
 30
0.0
  0
VERTEX
  5
121
330
113
100
AcDbEntity
  8
Layer 1
 62
     7
420
 16777215
370
    25
100
AcDbVertex
100
AcDb2dVertex
 10
197.5969258167131
 20
-101.0051042682251
 30
0.0
  0
VERTEX
  5
122
330
113
100
AcDbEntity
  8
Layer 1
 62
     7
420
 16777215
370
    25
100
AcDbVertex
100
AcDb2dVertex
 10
185.6906758196896
 20
-101.0051042682251
 30
0.0
  0
VERTEX
  5
123
330
113
100
AcDbEntity
  8
Layer 1
 62
     7
420
 16777215
370
    25
100
AcDbVertex
100
AcDb2dVertex
 10
185.6906758196896
 20
-115.0051110464092
 30
0.0
  0
VERTEX
  5
124
330
113
100
AcDbEntity
  8
Layer 1
 62
     7
420
 16777215
370
    25
100
AcDbVertex
100
AcDb2dVertex
 10
189.283931942652
 20
-115.0051110464092
 30
0.0
  0
VERTEX
  5
125
330
113
100
AcDbEntity
  8
Layer 1
 62
     7
420
 16777215
370
    25
100
AcDbVertex
100
AcDb2dVertex
 10
189.283931942652
 20
-116.0051146065433
 30
0.0
  0
VERTEX
  5
126
330
113
100
AcDbEntity
  8
Layer 1
 62
     7
420
 16777215
370
    25
100
AcDbVertex
100
AcDb2dVertex
 10
196.0339290587488
 20
-116.0051146065433
 30
0.0
  0
VERTEX
  5
127
330
113
100
AcDbEntity
  8
Layer 1
 62
     7
420
 16777215
370
    25
100
AcDbVertex
100
AcDb2dVertex
 10
196.0339290587488
 20
-115.0051110464092
 30
0.0
  0
VERTEX
  5
128
330
113
100
AcDbEntity
  8
Layer 1
 62
     7
420
 16777215
370
    25
100
AcDbVertex
100
AcDb2dVertex
 10
197.5969258167131
 20
-115.0051110464092
 30
0.0
  0
VERTEX
  5
129
330
113
100
AcDbEntity
  8
Layer 1
 62
     7
420
 16777215
370
    25
100
AcDbVertex
100
AcDb2dVertex
 10
199.6906825978736
 20
-115.0051110464092
 30
0.0
  0
VERTEX
  5
12A
330
113
100
AcDbEntity
  8
Layer 1
 62
     7
420
 16777215
370
    25
100
AcDbVertex
100
AcDb2dVertex
 10
211.5969325948971
 20
-115.0051110464092
 30
0.0
  0
VERTEX
  5
12B
330
113
100
AcDbEntity
  8
Layer 1
 62
     7
420
 16777215
370
    25
100
AcDbVertex
100
AcDb2dVertex
 10
211.5969325948971
 20
-113.7931049228515
 30
0.0
  0
VERTEX
  5
12C
330
113
100
AcDbEntity
  8
Layer 1
 62
     7
420
 16777215
370
    25
100
AcDbVertex
100
AcDb2dVertex
 10
213.1599293528614
 20
-113.7931049228515
 30
0.0
  0
VERTEX
  5
12D
330
113
100
AcDbEntity
  8
Layer 1
 62
     7
420
 16777215
370
    25
100
AcDbVertex
100
AcDb2dVertex
 10
213.1599293528614
 20
-116.0051146065433
 30
0.0
  0
VERTEX
  5
12E
330
113
100
AcDbEntity
  8
Layer 1
 62
     7
420
 16777215
370
    25
100
AcDbVertex
100
AcDb2dVertex
 10
219.9099264689582
 20
-116.0051146065433
 30
0.0
  0
VERTEX
  5
12F
330
113
100
AcDbEntity
  8
Layer 1
 62
     7
420
 16777215
370
    25
100
AcDbVertex
100
AcDb2dVertex
 10
219.9099264689582
 20
-113.7931049228515
 30
0.0
  0
VERTEX
  5
130
330
113
100
AcDbEntity
  8
Layer 1
 62
     7
420
 16777215
370
    25
100
AcDbVertex
100
AcDb2dVertex
 10
220.1219290323817
 20
-113.7931049228515
 30
0.0
  0
VERTEX
  5
131
330
113
100
AcDbEntity
  8
Layer 1
 62
     7
420
 16777215
370
    25
100
AcDbVertex
100
AcDb2dVertex
 10
220.1219290323817
 20
-107.0431078067547
 30
0.0
  0
VERTEX
  5
132
330
113
100
AcDbEntity
  8
Layer 1
 62
     7
420
 16777215
370
    25
100
AcDbVertex
100
AcDb2dVertex
 10
219.9099264689582
 20
-107.0431078067547
 30
0.0
  0
VERTEX
  5
133
330
113
100
AcDbEntity
  8
Layer 1
 62
     7
420
 16777215
370
    25
100
AcDbVertex
100
AcDb2dVertex
 10
219.9099264689582
 20
-105.4801110487904
 30
0.0
  0
VERTEX
  5
134
330
113
100
AcDbEntity
  8
Layer 1
 62
     7
420
 16777215
370
    25
100
AcDbVertex
100
AcDb2dVertex
 10
221.1219325925158
 20
-105.4801110487904
 30
0.0
  0
SEQEND
  5
135
330
113
100
AcDbEntity
  8
Layer 1
 62
     7
420
 16777215
370
    25
  0
INSERT
  5
137
330
1F
100
AcDbEntity
  8
Layer 1
100
AcDbBlockReference
  2
block 21
 10
0.0
 20
0.0
 30
0.0
  0
INSERT
  5
142
330
1F
100
AcDbEntity
  8
Layer 1
100
AcDbBlockReference
  2
block 22
 10
0.0
 20
0.0
 30
0.0
  0
INSERT
  5
14D
330
1F
100
AcDbEntity
  8
Layer 1
100
AcDbBlockReference
  2
block 23
 10
0.0
 20
0.0
 30
0.0
  0
INSERT
  5
158
330
1F
100
AcDbEntity
  8
Layer 1
100
AcDbBlockReference
  2
block 24
 10
0.0
 20
0.0
 30
0.0
  0
POLYLINE
  5
162
330
1F
100
AcDbEntity
  8
Layer 1
 62
     7
420
 16777215
370
    25
100
AcDb2dPolyline
 66
     1
 10
0.0
 20
0.0
 30
0.0
  0
VERTEX
  5
163
330
162
100
AcDbEntity
  8
Layer 1
 62
     7
420
 16777215
370
    25
100
AcDbVertex
100
AcDb2dVertex
 10
171.1156826050174
 20
-120.0551042634626
 30
0.0
  0
VERTEX
  5
164
330
162
100
AcDbEntity
  8
Layer 1
 62
     7
420
 16777215
370
    25
100
AcDbVertex
100
AcDb2dVertex
 10
164.2594258250474
 20
-120.0551042634626
 30
0.0
  0
VERTEX
  5
165
330
162
100
AcDbEntity
  8
Layer 1
 62
     7
420
 16777215
370
    25
100
AcDbVertex
100
AcDb2dVertex
 10
157.1156758268334
 20
-120.0551042634626
 30
0.0
  0
VERTEX
  5
166
330
162
100
AcDbEntity
  8
Layer 1
 62
     7
420
 16777215
370
    25
100
AcDbVertex
100
AcDb2dVertex
 10
157.1156758268334
 20
-134.0551110416467
 30
0.0
  0
VERTEX
  5
167
330
162
100
AcDbEntity
  8
Layer 1
 62
     7
420
 16777215
370
    25
100
AcDbVertex
100
AcDb2dVertex
 10
164.2594258250474
 20
-134.0551110416467
 30
0.0
  0
VERTEX
  5
168
330
162
100
AcDbEntity
  8
Layer 1
 62
     7
420
 16777215
370
    25
100
AcDbVertex
100
AcDb2dVertex
 10
171.1156826050174
 20
-134.0551110416467
 30
0.0
  0
VERTEX
  5
169
330
162
100
AcDbEntity
  8
Layer 1
 62
     7
420
 16777215
370
    25
100
AcDbVertex
100
AcDb2dVertex
 10
178.2594326032315
 20
-134.0551110416467
 30
0.0
  0
VERTEX
  5
16A
330
162
100
AcDbEntity
  8
Layer 1
 62
     7
420
 16777215
370
    25
100
AcDbVertex
100
AcDb2dVertex
 10
178.2594326032315
 20
-120.0551042634626
 30
0.0
  0
VERTEX
  5
16B
330
162
100
AcDbEntity
  8
Layer 1
 62
     7
420
 16777215
370
    25
100
AcDbVertex
100
AcDb2dVertex
 10
171.1156826050174
 20
-120.0551042634626
 30
0.0
  0
SEQEND
  5
16C
330
162
100
AcDbEntity
  8
Layer 1
 62
     7
420
 16777215
370
    25
  0
INSERT
  5
16E
330
1F
100
AcDbEntity
  8
Layer 1
100
AcDbBlockReference
  2
block 25
 10
0.0
 20
0.0
 30
0.0
  0
POLYLINE
  5
18E
330
1F
100
AcDbEntity
  8
Layer 1
 62
     7
420
 16777215
370
    25
100
AcDb2dPolyline
 66
     1
 10
0.0
 20
0.0
 30
0.0
  0
VERTEX
  5
18F
330
18E
100
AcDbEntity
  8
Layer 1
 62
     7
420
 16777215
370
    25
100
AcDbVertex
100
AcDb2dVertex
 10
123.4906826169236
 20
-153.1051145972679
 30
0.0
  0
VERTEX
  5
190
330
18E
100
AcDbEntity
  8
Layer 1
 62
     7
420
 16777215
370
    25
100
AcDbVertex
100
AcDb2dVertex
 10
92.82192584290712
 20
-153.1051145972679
 30
0.0
  0
VERTEX
  5
191
330
18E
100
AcDbEntity
  8
Layer 1
 62
     7
420
 16777215
370
    25
100
AcDbVertex
100
AcDb2dVertex
 10
83.29692584528837
 20
-153.1051145972679
 30
0.0
  0
VERTEX
  5
192
330
18E
100
AcDbEntity
  8
Layer 1
 62
     7
420
 16777215
370
    25
100
AcDbVertex
100
AcDb2dVertex
 10
83.29692584528837
 20
-139.1051078190838
 30
0.0
  0
VERTEX
  5
193
330
18E
100
AcDbEntity
  8
Layer 1
 62
     7
420
 16777215
370
    25
100
AcDbVertex
100
AcDb2dVertex
 10
84.50893196884605
 20
-139.1051078190838
 30
0.0
  0
VERTEX
  5
194
330
18E
100
AcDbEntity
  8
Layer 1
 62
     7
420
 16777215
370
    25
100
AcDbVertex
100
AcDb2dVertex
 10
84.50893196884605
 20
-138.1051042589497
 30
0.0
  0
VERTEX
  5
195
330
18E
100
AcDbEntity
  8
Layer 1
 62
     7
420
 16777215
370
    25
100
AcDbVertex
100
AcDb2dVertex
 10
89.27143196765543
 20
-138.1051042589497
 30
0.0
  0
VERTEX
  5
196
330
18E
100
AcDbEntity
  8
Layer 1
 62
     7
420
 16777215
370
    25
100
AcDbVertex
100
AcDb2dVertex
 10
91.25892908494284
 20
-138.1051042589497
 30
0.0
  0
VERTEX
  5
197
330
18E
100
AcDbEntity
  8
Layer 1
 62
     7
420
 16777215
370
    25
100
AcDbVertex
100
AcDb2dVertex
 10
96.0214290837522
 20
-138.1051042589497
 30
0.0
  0
VERTEX
  5
198
330
18E
100
AcDbEntity
  8
Layer 1
 62
     7
420
 16777215
370
    25
100
AcDbVertex
100
AcDb2dVertex
 10
96.0214290837522
 20
-139.1051078190838
 30
0.0
  0
VERTEX
  5
199
330
18E
100
AcDbEntity
  8
Layer 1
 62
     7
420
 16777215
370
    25
100
AcDbVertex
100
AcDb2dVertex
 10
97.2969326234724
 20
-139.1051078190838
 30
0.0
  0
VERTEX
  5
19A
330
18E
100
AcDbEntity
  8
Layer 1
 62
     7
420
 16777215
370
    25
100
AcDbVertex
100
AcDb2dVertex
 10
97.5844258417165
 20
-139.1051078190838
 30
0.0
  0
VERTEX
  5
19B
330
18E
100
AcDbEntity
  8
Layer 1
 62
     7
420
 16777215
370
    25
100
AcDbVertex
100
AcDb2dVertex
 10
106.8219326210908
 20
-139.1051078190838
 30
0.0
  0
VERTEX
  5
19C
330
18E
100
AcDbEntity
  8
Layer 1
 62
     7
420
 16777215
370
    25
100
AcDbVertex
100
AcDb2dVertex
 10
108.3849293790551
 20
-139.1051078190838
 30
0.0
  0
VERTEX
  5
19D
330
18E
100
AcDbEntity
  8
Layer 1
 62
     7
420
 16777215
370
    25
100
AcDbVertex
100
AcDb2dVertex
 10
108.3849293790551
 20
-138.1051042589497
 30
0.0
  0
VERTEX
  5
19E
330
18E
100
AcDbEntity
  8
Layer 1
 62
     7
420
 16777215
370
    25
100
AcDbVertex
100
AcDb2dVertex
 10
113.1474293778645
 20
-138.1051042589497
 30
0.0
  0
VERTEX
  5
19F
330
18E
100
AcDbEntity
  8
Layer 1
 62
     7
420
 16777215
370
    25
100
AcDbVertex
100
AcDb2dVertex
 10
115.1349264951519
 20
-138.1051042589497
 30
0.0
  0
VERTEX
  5
1A0
330
18E
100
AcDbEntity
  8
Layer 1
 62
     7
420
 16777215
370
    25
100
AcDbVertex
100
AcDb2dVertex
 10
119.8974264939613
 20
-138.1051042589497
 30
0.0
  0
VERTEX
  5
1A1
330
18E
100
AcDbEntity
  8
Layer 1
 62
     7
420
 16777215
370
    25
100
AcDbVertex
100
AcDb2dVertex
 10
119.8974264939613
 20
-139.1051078190838
 30
0.0
  0
VERTEX
  5
1A2
330
18E
100
AcDbEntity
  8
Layer 1
 62
     7
420
 16777215
370
    25
100
AcDbVertex
100
AcDb2dVertex
 10
123.4906826169236
 20
-139.1051078190838
 30
0.0
  0
VERTEX
  5
1A3
330
18E
100
AcDbEntity
  8
Layer 1
 62
     7
420
 16777215
370
    25
100
AcDbVertex
100
AcDb2dVertex
 10
123.4906826169236
 20
-153.1051145972679
 30
0.0
  0
SEQEND
  5
1A4
330
18E
100
AcDbEntity
  8
Layer 1
 62
     7
420
 16777215
370
    25
  0
POLYLINE
  5
1A5
330
1F
100
AcDbEntity
  8
Layer 1
 62
     7
420
 16777215
370
    25
100
AcDb2dPolyline
 66
     1
 10
0.0
 20
0.0
 30
0.0
  0
VERTEX
  5
1A6
330
1A5
100
AcDbEntity
  8
Layer 1
 62
     7
420
 16777215
370
    25
100
AcDbVertex
100
AcDb2dVertex
 10
221.1219325925158
 20
-139.1051042587001
 30
0.0
  0
VERTEX
  5
1A7
330
1A5
100
AcDbEntity
  8
Layer 1
 62
     7
420
 16777215
370
    25
100
AcDbVertex
100
AcDb2dVertex
 10
209.5031758137365
 20
-139.1051042587001
 30
0.0
  0
VERTEX
  5
1A8
330
1A5
100
AcDbEntity
  8
Layer 1
 62
     7
420
 16777215
370
    25
100
AcDbVertex
100
AcDb2dVertex
 10
207.1219258143318
 20
-139.1051042587001
 30
0.0
  0
VERTEX
  5
1A9
330
1A5
100
AcDbEntity
  8
Layer 1
 62
     7
420
 16777215
370
    25
100
AcDbVertex
100
AcDb2dVertex
 10
207.1219258143318
 20
-153.1051110368841
 30
0.0
  0
VERTEX
  5
1AA
330
1A5
100
AcDbEntity
  8
Layer 1
 62
     7
420
 16777215
370
    25
100
AcDbVertex
100
AcDb2dVertex
 10
209.5031758137365
 20
-153.1051110368841
 30
0.0
  0
VERTEX
  5
1AB
330
1A5
100
AcDbEntity
  8
Layer 1
 62
     7
420
 16777215
370
    25
100
AcDbVertex
100
AcDb2dVertex
 10
221.1219325925158
 20
-153.1051110368841
 30
0.0
  0
VERTEX
  5
1AC
330
1A5
100
AcDbEntity
  8
Layer 1
 62
     7
420
 16777215
370
    25
100
AcDbVertex
100
AcDb2dVertex
 10
223.5031825919205
 20
-153.1051110368841
 30
0.0
  0
VERTEX
  5
1AD
330
1A5
100
AcDbEntity
  8
Layer 1
 62
     7
420
 16777215
370
    25
100
AcDbVertex
100
AcDb2dVertex
 10
223.5031825919205
 20
-139.1051042587001
 30
0.0
  0
VERTEX
  5
1AE
330
1A5
100
AcDbEntity
  8
Layer 1
 62
     7
420
 16777215
370
    25
100
AcDbVertex
100
AcDb2dVertex
 10
221.1219325925158
 20
-139.1051042587001
 30
0.0
  0
SEQEND
  5
1AF
330
1A5
100
AcDbEntity
  8
Layer 1
 62
     7
420
 16777215
370
    25
  0
POLYLINE
  5
1B0
330
1F
100
AcDbEntity
  8
Layer 1
 62
     7
420
 16777215
370
    25
100
AcDb2dPolyline
 66
     1
 10
0.0
 20
0.0
 30
0.0
  0
VERTEX
  5
1B1
330
1B0
100
AcDbEntity
  8
Layer 1
 62
     7
420
 16777215
370
    25
100
AcDbVertex
100
AcDb2dVertex
 10
126.1594258345724
 20
-139.1051042587001
 30
0.0
  0
VERTEX
  5
1B2
330
1B0
100
AcDbEntity
  8
Layer 1
 62
     7
420
 16777215
370
    25
100
AcDbVertex
100
AcDb2dVertex
 10
126.1594258345724
 20
-153.1051110368841
 30
0.0
  0
VERTEX
  5
1B3
330
1B0
100
AcDbEntity
  8
Layer 1
 62
     7
420
 16777215
370
    25
100
AcDbVertex
100
AcDb2dVertex
 10
204.453182596683
 20
-153.1051110368841
 30
0.0
  0
VERTEX
  5
1B4
330
1B0
100
AcDbEntity
  8
Layer 1
 62
     7
420
 16777215
370
    25
100
AcDbVertex
100
AcDb2dVertex
 10
204.453182596683
 20
-139.1051042587001
 30
0.0
  0
VERTEX
  5
1B5
330
1B0
100
AcDbEntity
  8
Layer 1
 62
     7
420
 16777215
370
    25
100
AcDbVertex
100
AcDb2dVertex
 10
126.1594258345724
 20
-139.1051042587001
 30
0.0
  0
SEQEND
  5
1B6
330
1B0
100
AcDbEntity
  8
Layer 1
 62
     7
420
 16777215
370
    25
  0
POLYLINE
  5
1B7
330
1F
100
AcDbEntity
  8
Layer 1
 62
     7
420
 16777215
370
    25
100
AcDb2dPolyline
 66
     1
 10
0.0
 20
0.0
 30
0.0
  0
VERTEX
  5
1B8
330
1B7
100
AcDbEntity
  8
Layer 1
 62
     7
420
 16777215
370
    25
100
AcDbVertex
100
AcDb2dVertex
 10
222.2911764683628
 20
-62.90510427774979
 30
0.0
  0
VERTEX
  5
1B9
330
1B7
100
AcDbEntity
  8
Layer 1
 62
     7
420
 16777215
370
    25
100
AcDbVertex
100
AcDb2dVertex
 10
222.2911764683628
 20
-61.90510071761568
 30
0.0
  0
VERTEX
  5
1BA
330
1B7
100
AcDbEntity
  8
Layer 1
 62
     7
420
 16777215
370
    25
100
AcDbVertex
100
AcDb2dVertex
 10
215.5411793522661
 20
-61.90510071761568
 30
0.0
  0
VERTEX
  5
1BB
330
1B7
100
AcDbEntity
  8
Layer 1
 62
     7
420
 16777215
370
    25
100
AcDbVertex
100
AcDb2dVertex
 10
215.5411793522661
 20
-62.90510427774979
 30
0.0
  0
VERTEX
  5
1BC
330
1B7
100
AcDbEntity
  8
Layer 1
 62
     7
420
 16777215
370
    25
100
AcDbVertex
100
AcDb2dVertex
 10
213.9781825943018
 20
-62.90510427774979
 30
0.0
  0
VERTEX
  5
1BD
330
1B7
100
AcDbEntity
  8
Layer 1
 62
     7
420
 16777215
370
    25
100
AcDbVertex
100
AcDb2dVertex
 10
209.5031758137365
 20
-62.90510427774979
 30
0.0
  0
VERTEX
  5
1BE
330
1B7
100
AcDbEntity
  8
Layer 1
 62
     7
420
 16777215
370
    25
100
AcDbVertex
100
AcDb2dVertex
 10
204.453182596683
 20
-62.90510427774979
 30
0.0
  0
VERTEX
  5
1BF
330
1B7
100
AcDbEntity
  8
Layer 1
 62
     7
420
 16777215
370
    25
100
AcDbVertex
100
AcDb2dVertex
 10
199.9781758161178
 20
-62.90510427774979
 30
0.0
  0
VERTEX
  5
1C0
330
1B7
100
AcDbEntity
  8
Layer 1
 62
     7
420
 16777215
370
    25
100
AcDbVertex
100
AcDb2dVertex
 10
198.4151790581535
 20
-62.90510427774979
 30
0.0
  0
VERTEX
  5
1C1
330
1B7
100
AcDbEntity
  8
Layer 1
 62
     7
420
 16777215
370
    25
100
AcDbVertex
100
AcDb2dVertex
 10
198.4151790581535
 20
-61.90510071761568
 30
0.0
  0
VERTEX
  5
1C2
330
1B7
100
AcDbEntity
  8
Layer 1
 62
     7
420
 16777215
370
    25
100
AcDbVertex
100
AcDb2dVertex
 10
191.6651819420567
 20
-61.90510071761568
 30
0.0
  0
VERTEX
  5
1C3
330
1B7
100
AcDbEntity
  8
Layer 1
 62
     7
420
 16777215
370
    25
100
AcDbVertex
100
AcDb2dVertex
 10
191.6651819420567
 20
-62.90510427774979
 30
0.0
  0
VERTEX
  5
1C4
330
1B7
100
AcDbEntity
  8
Layer 1
 62
     7
420
 16777215
370
    25
100
AcDbVertex
100
AcDb2dVertex
 10
190.453175818499
 20
-62.90510427774979
 30
0.0
  0
VERTEX
  5
1C5
330
1B7
100
AcDbEntity
  8
Layer 1
 62
     7
420
 16777215
370
    25
100
AcDbVertex
100
AcDb2dVertex
 10
190.453175818499
 20
-76.90511105593383
 30
0.0
  0
VERTEX
  5
1C6
330
1B7
100
AcDbEntity
  8
Layer 1
 62
     7
420
 16777215
370
    25
100
AcDbVertex
100
AcDb2dVertex
 10
191.6651819420567
 20
-76.90511105593383
 30
0.0
  0
VERTEX
  5
1C7
330
1B7
100
AcDbEntity
  8
Layer 1
 62
     7
420
 16777215
370
    25
100
AcDbVertex
100
AcDb2dVertex
 10
191.6651819420567
 20
-77.90511461606794
 30
0.0
  0
VERTEX
  5
1C8
330
1B7
100
AcDbEntity
  8
Layer 1
 62
     7
420
 16777215
370
    25
100
AcDbVertex
100
AcDb2dVertex
 10
198.4151790581535
 20
-77.90511461606794
 30
0.0
  0
VERTEX
  5
1C9
330
1B7
100
AcDbEntity
  8
Layer 1
 62
     7
420
 16777215
370
    25
100
AcDbVertex
100
AcDb2dVertex
 10
198.4151790581535
 20
-76.90511105593383
 30
0.0
  0
VERTEX
  5
1CA
330
1B7
100
AcDbEntity
  8
Layer 1
 62
     7
420
 16777215
370
    25
100
AcDbVertex
100
AcDb2dVertex
 10
199.9781758161178
 20
-76.90511105593383
 30
0.0
  0
VERTEX
  5
1CB
330
1B7
100
AcDbEntity
  8
Layer 1
 62
     7
420
 16777215
370
    25
100
AcDbVertex
100
AcDb2dVertex
 10
204.453182596683
 20
-76.90511105593383
 30
0.0
  0
VERTEX
  5
1CC
330
1B7
100
AcDbEntity
  8
Layer 1
 62
     7
420
 16777215
370
    25
100
AcDbVertex
100
AcDb2dVertex
 10
209.5031758137365
 20
-76.90511105593383
 30
0.0
  0
VERTEX
  5
1CD
330
1B7
100
AcDbEntity
  8
Layer 1
 62
     7
420
 16777215
370
    25
100
AcDbVertex
100
AcDb2dVertex
 10
213.9781825943018
 20
-76.90511105593383
 30
0.0
  0
VERTEX
  5
1CE
330
1B7
100
AcDbEntity
  8
Layer 1
 62
     7
420
 16777215
370
    25
100
AcDbVertex
100
AcDb2dVertex
 10
215.5411793522661
 20
-76.90511105593383
 30
0.0
  0
VERTEX
  5
1CF
330
1B7
100
AcDbEntity
  8
Layer 1
 62
     7
420
 16777215
370
    25
100
AcDbVertex
100
AcDb2dVertex
 10
215.5411793522661
 20
-77.90511461606794
 30
0.0
  0
VERTEX
  5
1D0
330
1B7
100
AcDbEntity
  8
Layer 1
 62
     7
420
 16777215
370
    25
100
AcDbVertex
100
AcDb2dVertex
 10
222.2911764683628
 20
-77.90511461606794
 30
0.0
  0
VERTEX
  5
1D1
330
1B7
100
AcDbEntity
  8
Layer 1
 62
     7
420
 16777215
370
    25
100
AcDbVertex
100
AcDb2dVertex
 10
222.2911764683628
 20
-76.90511105593383
 30
0.0
  0
VERTEX
  5
1D2
330
1B7
100
AcDbEntity
  8
Layer 1
 62
     7
420
 16777215
370
    25
100
AcDbVertex
100
AcDb2dVertex
 10
223.5031825919205
 20
-76.90511105593383
 30
0.0
  0
VERTEX
  5
1D3
330
1B7
100
AcDbEntity
  8
Layer 1
 62
     7
420
 16777215
370
    25
100
AcDbVertex
100
AcDb2dVertex
 10
223.5031825919205
 20
-62.90510427774979
 30
0.0
  0
VERTEX
  5
1D4
330
1B7
100
AcDbEntity
  8
Layer 1
 62
     7
420
 16777215
370
    25
100
AcDbVertex
100
AcDb2dVertex
 10
222.2911764683628
 20
-62.90510427774979
 30
0.0
  0
SEQEND
  5
1D5
330
1B7
100
AcDbEntity
  8
Layer 1
 62
     7
420
 16777215
370
    25
  0
LWPOLYLINE
  5
23F
330
1F
100
AcDbEntity
  8
0
100
AcDbPolyline
 90
        2
 70
     1
 43
0.0
 10
218.4161779103145
 20
-58.40510766029332
 10
218.4161779103145
 20
-58.40510766029332
  0
LINE
  5
298
330
1F
100
AcDbEntity
  8
0
100
AcDbLine
 10
208.0781792052098
 20
-58.40510766029336
 30
0.0
 11
208.0781792052098
 21
-60.40510766029335
 31
0.0
  0
ARC
  5
299
330
1F
100
AcDbEntity
  8
0
100
AcDbCircle
 10
208.5781792052098
 20
-58.40510766029336
 30
0.0
 40
0.5
100
AcDbArc
 50
90.0
 51
180.0
  0
LINE
  5
29A
330
1F
100
AcDbEntity
  8
0
100
AcDbLine
 10
205.8781792052097
 20
-60.40510766029335
 30
0.0
 11
205.8781792052097
 21
-58.40510766029336
 31
0.0
  0
ARC
  5
29B
330
1F
100
AcDbEntity
  8
0
100
AcDbCircle
 10
205.3781792052097
 20
-58.40510766029336
 30
0.0
 40
0.5
100
AcDbArc
 50
0.0
 51
90.0
  0
ARC
  5
29C
330
1F
100
AcDbEntity
  8
0
100
AcDbCircle
 10
206.9781792052098
 20
-60.40510766029336
 30
0.0
 40
1.099999999999994
100
AcDbArc
 50
179.9999999999996
 51
359.9999999999996
  0
LWPOLYLINE
  5
29E
330
1F
100
AcDbEntity
  8
0
100
AcDbPolyline
 90
        2
 70
     1
 43
0.0
 10
218.9161779103145
 20
-58.90510766029335
 10
218.9161779103145
 20
-58.90510766029335
  0
LWPOLYLINE
  5
29F
330
1F
100
AcDbEntity
  8
0
100
AcDbPolyline
 90
        2
 70
     1
 43
0.0
 10
219.4161779103144
 20
-58.40510766029338
 10
219.4161779103144
 20
-58.40510766029338
  0
LINE
  5
2AB
330
1F
100
AcDbEntity
  8
0
100
AcDbLine
 10
225.0031825919205
 20
-57.90510766029335
 30
0.0
 11
208.5781792052098
 21
-57.90510766029335
 31
0.0
  0
LINE
  5
2B5
330
1F
100
AcDbEntity
  8
0
100
AcDbLine
 10
65.12817924331002
 20
-106.9051076602933
 30
0.0
 11
67.12817924331003
 21
-106.9051076602933
 31
0.0
  0
ARC
  5
2B6
330
1F
100
AcDbEntity
  8
0
100
AcDbCircle
 10
65.12817924331002
 20
-106.4051076602933
 30
0.0
 40
0.5
100
AcDbArc
 50
180.0
 51
270.0
  0
LINE
  5
2B7
330
1F
100
AcDbEntity
  8
0
100
AcDbLine
 10
67.12817924331003
 20
-109.1051076602933
 30
0.0
 11
65.12817924331002
 21
-109.1051076602933
 31
0.0
  0
ARC
  5
2B8
330
1F
100
AcDbEntity
  8
0
100
AcDbCircle
 10
65.12817924331002
 20
-109.6051076602933
 30
0.0
 40
0.5
100
AcDbArc
 50
90.0
 51
180.0
  0
ARC
  5
2B9
330
1F
100
AcDbEntity
  8
0
100
AcDbCircle
 10
67.12817924331003
 20
-108.0051076602933
 30
0.0
 40
1.099999999999994
100
AcDbArc
 50
269.9999999999996
 51
89.99999999999959
  0
LINE
  5
2BB
330
1F
100
AcDbEntity
  8
0
100
AcDbLine
 10
214.2125542031262
 20
-157.6051110368842
 30
0.0
 11
214.2125542031262
 21
-155.6051110368842
 31
0.0
  0
ARC
  5
2BC
330
1F
100
AcDbEntity
  8
0
100
AcDbCircle
 10
213.7125542031262
 20
-157.6051110368842
 30
0.0
 40
0.5
100
AcDbArc
 50
270.0
 51
0.0
  0
LINE
  5
2BD
330
1F
100
AcDbEntity
  8
0
100
AcDbLine
 10
216.4125542031262
 20
-155.6051110368842
 30
0.0
 11
216.4125542031262
 21
-157.6051110368842
 31
0.0
  0
ARC
  5
2BE
330
1F
100
AcDbEntity
  8
0
100
AcDbCircle
 10
216.9125542031262
 20
-157.6051110368842
 30
0.0
 40
0.5
100
AcDbArc
 50
180.0
 51
270.0
  0
ARC
  5
2BF
330
1F
100
AcDbEntity
  8
0
100
AcDbCircle
 10
215.3125542031262
 20
-155.6051110368842
 30
0.0
 40
1.099999999999994
100
AcDbArc
 50
0.0
 51
180.0
  0
LINE
  5
2C0
330
1F
100
AcDbEntity
  8
0
100
AcDbLine
 10
216.9125542031262
 20
-158.1051110368842
 30
0.0
 11
225.0031825919205
 21
-158.1051110368842
 31
0.0
  0
LINE
  5
2C1
330
1F
100
AcDbEntity
  8
0
100
AcDbLine
 10
225.5031825919205
 20
-157.6051110368842
 30
0.0
 11
225.5031825919205
 21
-58.40510766029336
 31
0.0
  0
LINE
  5
2C2
330
1F
100
AcDbEntity
  8
0
100
AcDbLine
 10
225.0031825919205
 20
-57.90510766029335
 30
0.0
 11
208.5781792052097
 21
-57.90510766029335
 31
0.0
  0
LINE
  5
2C3
330
1F
100
AcDbEntity
  8
0
100
AcDbLine
 10
205.3781792052097
 20
-57.90510766029335
 30
0.0
 11
65.12817924331
 21
-57.90510766029335
 31
0.0
  0
LINE
  5
2C4
330
1F
100
AcDbEntity
  8
0
100
AcDbLine
 10
64.62817924331003
 20
-58.40510766029336
 30
0.0
 11
64.62817924331003
 21
-106.4051076602933
 31
0.0
  0
LINE
  5
2C5
330
1F
100
AcDbEntity
  8
0
100
AcDbLine
 10
64.62817924331003
 20
-109.6051076602933
 30
0.0
 11
64.62817924331003
 21
-157.6051110368842
 31
0.0
  0
LINE
  5
2C6
330
1F
100
AcDbEntity
  8
0
100
AcDbLine
 10
65.12817924331002
 20
-158.1051110368842
 30
0.0
 11
213.7125542031262
 21
-158.1051110368842
 31
0.0
  0
ARC
  5
2C7
330
1F
100
AcDbEntity
  8
0
100
AcDbCircle
 10
65.12817924331002
 20
-58.40510766029336
 30
0.0
 40
0.5
100
AcDbArc
 50
90.0
 51
180.0
  0
ARC
  5
2CA
330
1F
100
AcDbEntity
  8
0
100
AcDbCircle
 10
225.0031825919205
 20
-58.40510766029336
 30
0.0
 40
0.5
100
AcDbArc
 50
0.0
 51
90.0
  0
ARC
  5
2CB
330
1F
100
AcDbEntity
  8
0
100
AcDbCircle
 10
225.0031825919205
 20
-157.6051110368842
 30
0.0
 40
0.5
100
AcDbArc
 50
270.0
 51
0.0
  0
ARC
  5
2CC
330
1F
100
AcDbEntity
  8
0
100
AcDbCircle
 10
65.12817924331002
 20
-157.6051110368842
 30
0.0
 40
0.5
100
AcDbArc
 50
180.0
 51
270.0
  0
ENDSEC
  0
SECTION
  2
OBJECTS
  0
DICTIONARY
  5
C
330
0
100
AcDbDictionary
281
     1
  3
ACAD_CIP_PREVIOUS_PRODUCT_INFO
350
207
  3
ACAD_COLOR
350
1EC
  3
ACAD_DETAILVIEWSTYLE
350
203
  3
ACAD_GROUP
350
D
  3
ACAD_LAYOUT
350
1A
  3
ACAD_MATERIAL
350
3B
  3
ACAD_MLEADERSTYLE
350
1DF
  3
ACAD_MLINESTYLE
350
17
  3
ACAD_PLOTSETTINGS
350
19
  3
ACAD_PLOTSTYLENAME
350
E
  3
ACAD_SCALELIST
350
1EE
  3
ACAD_SECTIONVIEWSTYLE
350
201
  3
ACAD_TABLESTYLE
350
1DE
  3
ACAD_VISUALSTYLE
350
2A
  3
ACDB_RECOMPOSE_DATA
350
300
  3
AcDbVariableDictionary
350
284
  0
SUN
  5
3F
330
29
100
AcDbSun
 90
        1
290
     1
 63
     7
421
 16777215
 40
1.0
291
     1
 91
  2455826
 92
 54000000
292
     0
 70
     0
 71
   256
280
     1
  0
DICTIONARY
  5
236
330
2
100
AcDbDictionary
280
     1
281
     1
  3
ACAD_LAYERSTATES
360
237
  0
DICTIONARY
  5
2C8
330
1F
100
AcDbDictionary
280
     1
281
     1
  3
ACAD_SORTENTS
360
2C9
  0
XRECORD
  5
207
102
{ACAD_REACTORS
330
C
102
}
330
C
100
AcDbXrecord
280
     1
300
ACDMAC
300
2024
300

  0
DICTIONARY
  5
1EC
102
{ACAD_REACTORS
330
C
102
}
330
C
100
AcDbDictionary
281
     1
  0
DICTIONARY
  5
203
102
{ACAD_REACTORS
330
C
102
}
330
C
100
AcDbDictionary
281
     1
  3
Imperial24
350
204
  0
DICTIONARY
  5
D
102
{ACAD_REACTORS
330
C
102
}
330
C
100
AcDbDictionary
281
     1
  0
DICTIONARY
  5
1A
102
{ACAD_REACTORS
330
C
102
}
330
C
100
AcDbDictionary
281
     1
  3
Layout1
350
1E
  3
Layout2
350
26
  3
Model
350
22
  0
DICTIONARY
  5
3B
102
{ACAD_REACTORS
330
C
102
}
330
C
100
AcDbDictionary
281
     1
  3
ByBlock
350
3D
  3
ByLayer
350
3C
  3
Global
350
3E
  0
DICTIONARY
  5
1DF
102
{ACAD_REACTORS
330
C
102
}
330
C
100
AcDbDictionary
281
     1
  3
Standard
350
200
  0
DICTIONARY
  5
17
102
{ACAD_REACTORS
330
C
102
}
330
C
100
AcDbDictionary
281
     1
  3
Standard
350
18
  0
DICTIONARY
  5
19
102
{ACAD_REACTORS
330
C
102
}
330
C
100
AcDbDictionary
281
     1
  0
ACDBDICTIONARYWDFLT
  5
E
102
{ACAD_REACTORS
330
C
102
}
330
C
100
AcDbDictionary
281
     1
  3
Normal
350
F
100
AcDbDictionaryWithDefault
340
F
  0
DICTIONARY
  5
1EE
102
{ACAD_REACTORS
330
C
102
}
330
C
100
AcDbDictionary
281
     1
  3
A0
350
1EF
  3
A1
350
1F0
  3
A2
350
1F1
  3
A3
350
1F2
  3
A4
350
1F3
  3
A5
350
1F4
  3
A6
350
1F5
  3
A7
350
1F6
  3
A8
350
1F7
  3
A9
350
1F8
  3
B0
350
1F9
  3
B1
350
1FA
  3
B2
350
1FB
  3
B3
350
1FC
  3
B4
350
1FD
  3
B5
350
1FE
  3
B6
350
1FF
  0
DICTIONARY
  5
201
102
{ACAD_REACTORS
330
C
102
}
330
C
100
AcDbDictionary
281
     1
  3
Imperial24
350
202
  0
DICTIONARY
  5
1DE
102
{ACAD_REACTORS
330
C
102
}
330
C
100
AcDbDictionary
281
     1
  3
Standard
350
1ED
  0
DICTIONARY
  5
2A
102
{ACAD_REACTORS
330
C
102
}
330
C
100
AcDbDictionary
281
     1
  3
2dWireframe
350
2F
  3
3D Hidden
350
31
  3
3dWireframe
350
30
  3
Basic
350
32
  3
Brighten
350
36
  3
ColorChange
350
3A
  3
Conceptual
350
34
  3
Dim
350
35
  3
EdgeColorOff
350
1EB
  3
Facepattern
350
39
  3
Flat
350
2B
  3
FlatWithEdges
350
2C
  3
Gouraud
350
2D
  3
GouraudWithEdges
350
2E
  3
Hidden
350
1E3
  3
JitterOff
350
1E9
  3
Linepattern
350
38
  3
OverhangOff
350
1EA
  3
Realistic
350
33
  3
Shaded
350
1E8
  3
Shaded with edges
350
1E7
  3
Shades of Gray
350
1E4
  3
Sketchy
350
1E5
  3
Thicken
350
37
  3
Wireframe
350
1E2
  3
X-Ray
350
1E6
  0
XRECORD
  5
300
102
{ACAD_REACTORS
330
C
102
}
330
C
100
AcDbXrecord
280
     1
 90
        1
330
1ED
  0
DICTIONARY
  5
284
102
{ACAD_REACTORS
330
C
102
}
330
C
100
AcDbDictionary
281
     1
  3
CANNOSCALE
350
289
  3
CMLEADERSTYLE
350
286
  3
CTABLESTYLE
350
285
  3
CVIEWDETAILSTYLE
350
287
  3
CVIEWSECTIONSTYLE
350
288
  0
DICTIONARY
  5
237
102
{ACAD_REACTORS
330
236
102
}
330
236
100
AcDbDictionary
281
     1
  0
SORTENTSTABLE
  5
2C9
102
{ACAD_REACTORS
330
2C8
102
}
330
2C8
100
AcDbSortentsTable
330
1F
331
2C2
  5
2C4
331
2C3
  5
2C5
331
2C4
  5
2C7
331
2C5
  5
2CA
331
2C6
  5
2CC
331
2C7
  5
2C6
331
2CA
  5
2C3
331
2CB
  5
2C2
331
2CC
  5
2CB
  0
ACDBDETAILVIEWSTYLE
  5
204
102
{ACAD_REACTORS
330
203
102
}
330
203
100
AcDbModelDocViewStyle
 70
     0
  3
Imperial24
290
     0
300
Imperial24
 90
        0
100
AcDbDetailViewStyle
 70
     0
 71
     0
 90
        3
 71
     1
340
11
 62
   256
 40
0.24
340
0
 62
   256
 40
0.24
300

 40
0.36
280
     3
 71
     2
340
16
 90
       25
 62
   256
 71
     3
340
11
 62
   256
 40
0.24
 90
        1
 40
0.75
 90
        1
300
%<\AcVar ViewType \f "%tc1">% %<\AcVar ViewDetailId>%\PSCALE %<\AcVar ViewScale \f "%sn">%
 71
     4
340
16
 90
       25
 62
   256
340
16
 90
       25
 62
   256
280
     0
  0
LAYOUT
  5
1E
102
{ACAD_REACTORS
330
1A
102
}
330
1A
100
AcDbPlotSettings
  1

  2
none_device
  4

  6

 40
0.0
 41
0.0
 42
0.0
 43
0.0
 44
0.0
 45
0.0
 46
0.0
 47
0.0
 48
0.0
 49
0.0
140
0.0
141
0.0
142
1.0
143
1.0
 70
   688
 72
     0
 73
     0
 74
     5
  7

 75
    16
147
1.0
 76
     0
 77
     2
 78
   300
148
0.0
149
0.0
100
AcDbLayout
  1
Layout1
 70
     1
 71
     1
 10
0.0
 20
0.0
 11
12.0
 21
9.0
 12
0.0
 22
0.0
 32
0.0
 14
1.000000000000000E+20
 24
1.000000000000000E+20
 34
1.000000000000000E+20
 15
-1.000000000000000E+20
 25
-1.000000000000000E+20
 35
-1.000000000000000E+20
146
0.0
 13
0.0
 23
0.0
 33
0.0
 16
1.0
 26
0.0
 36
0.0
 17
0.0
 27
1.0
 37
0.0
 76
     0
330
1B
  0
LAYOUT
  5
26
102
{ACAD_REACTORS
330
1A
102
}
330
1A
100
AcDbPlotSettings
  1

  2
none_device
  4

  6

 40
0.0
 41
0.0
 42
0.0
 43
0.0
 44
0.0
 45
0.0
 46
0.0
 47
0.0
 48
0.0
 49
0.0
140
0.0
141
0.0
142
1.0
143
1.0
 70
   688
 72
     0
 73
     0
 74
     5
  7

 75
    16
147
1.0
 76
     0
 77
     2
 78
   300
148
0.0
149
0.0
100
AcDbLayout
  1
Layout2
 70
     1
 71
     2
 10
0.0
 20
0.0
 11
0.0
 21
0.0
 12
0.0
 22
0.0
 32
0.0
 14
0.0
 24
0.0
 34
0.0
 15
0.0
 25
0.0
 35
0.0
146
0.0
 13
0.0
 23
0.0
 33
0.0
 16
1.0
 26
0.0
 36
0.0
 17
0.0
 27
1.0
 37
0.0
 76
     0
330
23
  0
LAYOUT
  5
22
102
{ACAD_REACTORS
330
1A
102
}
330
1A
100
AcDbPlotSettings
  1

  2
none_device
  4

  6

 40
0.0
 41
0.0
 42
0.0
 43
0.0
 44
0.0
 45
0.0
 46
0.0
 47
0.0
 48
0.0
 49
0.0
140
0.0
141
0.0
142
1.0
143
1.0
 70
  1712
 72
     0
 73
     0
 74
     0
  7

 75
     0
147
1.0
 76
     0
 77
     2
 78
   300
148
0.0
149
0.0
100
AcDbLayout
  1
Model
 70
     1
 71
     0
 10
0.0
 20
0.0
 11
12.0
 21
9.0
 12
0.0
 22
0.0
 32
0.0
 14
1.000000000000000E+20
 24
1.000000000000000E+20
 34
1.000000000000000E+20
 15
-1.000000000000000E+20
 25
-1.000000000000000E+20
 35
-1.000000000000000E+20
146
0.0
 13
0.0
 23
0.0
 33
0.0
 16
1.0
 26
0.0
 36
0.0
 17
0.0
 27
1.0
 37
0.0
 76
     0
330
1F
331
29
  0
MATERIAL
  5
3D
102
{ACAD_REACTORS
330
3B
102
}
330
3B
100
AcDbMaterial
  1
ByBlock
  0
MATERIAL
  5
3C
102
{ACAD_REACTORS
330
3B
102
}
330
3B
100
AcDbMaterial
  1
ByLayer
  0
MATERIAL
  5
3E
102
{ACAD_REACTORS
330
3B
102
}
330
3B
100
AcDbMaterial
  1
Global
  0
MLEADERSTYLE
  5
200
102
{ACAD_REACTORS
330
1DF
102
}
330
1DF
100
AcDbMLeaderStyle
179
     2
170
     2
171
     1
172
     0
 90
        2
 40
0.0
 41
0.0
173
     1
 91
-1056964608
340
14
 92
       -2
290
     1
 42
0.09
291
     1
 43
0.36
  3
Standard
 44
0.18
300

342
11
174
     1
178
     6
175
     1
176
     0
 93
-1056964608
 45
0.18
292
     0
297
     0
 46
0.18
 94
-1056964608
 47
1.0
 49
1.0
140
1.0
293
     1
141
0.0
294
     1
177
     0
142
1.0
295
     0
296
     0
143
0.125
271
     0
272
     9
273
     9
298
     0
  0
MLINESTYLE
  5
18
102
{ACAD_REACTORS
330
17
102
}
330
17
100
AcDbMlineStyle
  2
STANDARD
 70
     0
  3

 62
   256
 51
90.0
 52
90.0
 71
     2
 49
0.5
 62
   256
  6
BYLAYER
 49
-0.5
 62
   256
  6
BYLAYER
  0
ACDBPLACEHOLDER
  5
F
102
{ACAD_REACTORS
330
E
102
}
330
E
  0
SCALE
  5
1EF
102
{ACAD_REACTORS
330
1EE
102
}
330
1EE
100
AcDbScale
 70
     0
300
1:1
140
1.0
141
1.0
290
     1
  0
SCALE
  5
1F0
102
{ACAD_REACTORS
330
1EE
102
}
330
1EE
100
AcDbScale
 70
     0
300
1/128" = 1'-0"
140
0.0078125
141
12.0
290
     0
  0
SCALE
  5
1F1
102
{ACAD_REACTORS
330
1EE
102
}
330
1EE
100
AcDbScale
 70
     0
300
1/64" = 1'-0"
140
0.015625
141
12.0
290
     0
  0
SCALE
  5
1F2
102
{ACAD_REACTORS
330
1EE
102
}
330
1EE
100
AcDbScale
 70
     0
300
1/32" = 1'-0"
140
0.03125
141
12.0
290
     0
  0
SCALE
  5
1F3
102
{ACAD_REACTORS
330
1EE
102
}
330
1EE
100
AcDbScale
 70
     0
300
1/16" = 1'-0"
140
0.0625
141
12.0
290
     0
  0
SCALE
  5
1F4
102
{ACAD_REACTORS
330
1EE
102
}
330
1EE
100
AcDbScale
 70
     0
300
3/32" = 1'-0"
140
0.09375
141
12.0
290
     0
  0
SCALE
  5
1F5
102
{ACAD_REACTORS
330
1EE
102
}
330
1EE
100
AcDbScale
 70
     0
300
1/8" = 1'-0"
140
0.125
141
12.0
290
     0
  0
SCALE
  5
1F6
102
{ACAD_REACTORS
330
1EE
102
}
330
1EE
100
AcDbScale
 70
     0
300
3/16" = 1'-0"
140
0.1875
141
12.0
290
     0
  0
SCALE
  5
1F7
102
{ACAD_REACTORS
330
1EE
102
}
330
1EE
100
AcDbScale
 70
     0
300
1/4" = 1'-0"
140
0.25
141
12.0
290
     0
  0
SCALE
  5
1F8
102
{ACAD_REACTORS
330
1EE
102
}
330
1EE
100
AcDbScale
 70
     0
300
3/8" = 1'-0"
140
0.375
141
12.0
290
     0
  0
SCALE
  5
1F9
102
{ACAD_REACTORS
330
1EE
102
}
330
1EE
100
AcDbScale
 70
     0
300
1/2" = 1'-0"
140
0.5
141
12.0
290
     0
  0
SCALE
  5
1FA
102
{ACAD_REACTORS
330
1EE
102
}
330
1EE
100
AcDbScale
 70
     0
300
3/4" = 1'-0"
140
0.75
141
12.0
290
     0
  0
SCALE
  5
1FB
102
{ACAD_REACTORS
330
1EE
102
}
330
1EE
100
AcDbScale
 70
     0
300
1" = 1'-0"
140
1.0
141
12.0
290
     0
  0
SCALE
  5
1FC
102
{ACAD_REACTORS
330
1EE
102
}
330
1EE
100
AcDbScale
 70
     0
300
1-1/2" = 1'-0"
140
1.5
141
12.0
290
     0
  0
SCALE
  5
1FD
102
{ACAD_REACTORS
330
1EE
102
}
330
1EE
100
AcDbScale
 70
     0
300
3" = 1'-0"
140
3.0
141
12.0
290
     0
  0
SCALE
  5
1FE
102
{ACAD_REACTORS
330
1EE
102
}
330
1EE
100
AcDbScale
 70
     0
300
6" = 1'-0"
140
6.0
141
12.0
290
     0
  0
SCALE
  5
1FF
102
{ACAD_REACTORS
330
1EE
102
}
330
1EE
100
AcDbScale
 70
     0
300
1'-0" = 1'-0"
140
12.0
141
12.0
290
     0
  0
ACDBSECTIONVIEWSTYLE
  5
202
102
{ACAD_REACTORS
330
201
102
}
330
201
100
AcDbModelDocViewStyle
 70
     0
  3
Imperial24
290
     0
300
Imperial24
 90
        0
100
AcDbSectionViewStyle
 70
     0
 71
     0
 90
       78
 71
     1
340
11
 62
   256
 40
0.24
340
0
340
0
 62
   256
 40
0.24
300
I, O, Q, S, X, Z
 40
0.48
 90
        3
 40
0.18
 90
        1
 71
     2
340
16
 90
       25
 62
   256
340
16
 90
       50
 62
   256
 40
0.24
 40
0.0
 40
0.24
 71
     3
340
11
 62
   256
 40
0.24
 90
        1
 40
0.75
 90
        1
300
%<\AcVar ViewType \f "%tc1">% %<\AcVar ViewSectionStartId>%-%<\AcVar ViewSectionEndId>%\PSCALE %<\AcVar ViewScale \f "%sn">%
 71
     4
 62
   256
 62
   257
300
ANSI31
 40
1.0
 90
        0
290
     0
290
     0
 90
        6
 40
0.0
 40
1.570796326794896
 40
0.2617993877991494
 40
1.308996938995747
 40
-0.2617993877991494
 40
1.832595714594046
  0
TABLESTYLE
  5
1ED
102
{ACAD_XDICTIONARY
360
2FE
102
}
102
{ACAD_REACTORS
330
1DE
102
}
330
1DE
100
AcDbTableStyle
280
     0
  3
Standard
 70
     0
 71
     0
 40
0.06
 41
0.06
280
     0
281
     0
  7
Standard
140
0.18
170
     2
 62
     0
 63
     7
283
     0
 90
      512
 91
        0
  1

274
    -2
284
     1
 64
     0
275
    -2
285
     1
 65
     0
276
    -2
286
     1
 66
     0
277
    -2
287
     1
 67
     0
278
    -2
288
     1
 68
     0
279
    -2
289
     1
 69
     0
  7
Standard
140
0.25
170
     5
 62
     0
 63
     7
283
     0
 90
      512
 91
        0
  1

274
    -2
284
     1
 64
     0
275
    -2
285
     1
 65
     0
276
    -2
286
     1
 66
     0
277
    -2
287
     1
 67
     0
278
    -2
288
     1
 68
     0
279
    -2
289
     1
 69
     0
  7
Standard
140
0.18
170
     5
 62
     0
 63
     7
283
     0
 90
      512
 91
        0
  1

274
    -2
284
     1
 64
     0
275
    -2
285
     1
 65
     0
276
    -2
286
     1
 66
     0
277
    -2
287
     1
 67
     0
278
    -2
288
     1
 68
     0
279
    -2
289
     1
 69
     0
  0
VISUALSTYLE
  5
2F
102
{ACAD_REACTORS
330
2A
102
}
330
2A
100
AcDbVisualStyle
  2
2dWireframe
 70
     4
177
     3
291
     0
 70
    58
 90
        0
176
     1
 90
        2
176
     1
 90
        0
176
     1
 90
        0
176
     1
 40
0.6
176
     1
 40
30.0
176
     1
 62
     7
420
 16777215
176
     1
 90
        1
176
     1
 90
        4
176
     1
 62
     7
176
     1
 62
   257
176
     1
 90
        1
176
     1
 90
        1
176
     1
 40
1.0
176
     1
 90
        0
176
     1
 62
   257
176
     1
 40
1.0
176
     1
 90
        1
176
     1
 90
        6
176
     1
 90
        2
176
     1
 62
     7
176
     1
 90
        5
176
     1
 90
        0
176
     1
 90
        0
176
     1
290
     0
176
     1
 90
        1
176
     1
 40
0.0
176
     1
 90
        0
176
     1
290
     1
176
     1
290
     1
176
     1
290
     0
176
     1
290
     0
176
     1
290
     0
176
     1
290
     0
176
     1
290
     0
176
     1
290
     0
176
     1
290
     0
176
     1
 90
       50
176
     1
 40
0.0
176
     1
 40
1.0
176
     1
 90
        0
176
     1
 62
    18
420
        0
176
     1
 90
       50
176
     1
 90
        3
176
     1
 62
     5
420
      255
176
     1
290
     0
176
     1
 90
       50
176
     1
 90
       50
176
     1
 90
       50
176
     1
290
     0
176
     1
 90
       50
176
     1
 62
   256
176
     0
 40
1.0
176
     0
 90
        2
176
     1
  1
strokes_ogs.tif
176
     1
290
     0
176
     1
 40
1.0
176
     1
 40
1.0
176
     1
  0
VISUALSTYLE
  5
31
102
{ACAD_REACTORS
330
2A
102
}
330
2A
100
AcDbVisualStyle
  2
3D Hidden
 70
     6
177
     3
291
     0
 70
    58
 90
        1
176
     1
 90
        2
176
     1
 90
        2
176
     1
 90
        0
176
     1
 40
0.6
176
     1
 40
30.0
176
     1
 62
     7
420
 16777215
176
     1
 90
        2
176
     1
 90
        2
176
     1
 62
     7
176
     1
 62
   257
176
     1
 90
        2
176
     1
 90
        1
176
     1
 40
40.0
176
     1
 90
        0
176
     1
 62
   257
176
     1
 40
1.0
176
     1
 90
        1
176
     1
 90
        6
176
     1
 90
        2
176
     1
 62
     7
176
     1
 90
        3
176
     1
 90
        0
176
     1
 90
        0
176
     1
290
     0
176
     1
 90
        1
176
     1
 40
0.0
176
     1
 90
        0
176
     1
290
     0
176
     1
290
     1
176
     1
290
     1
176
     1
290
     0
176
     1
290
     0
176
     1
290
     0
176
     1
290
     0
176
     1
290
     0
176
     1
290
     0
176
     1
 90
       50
176
     1
 40
0.0
176
     1
 40
1.0
176
     1
 90
        0
176
     1
 62
    18
420
        0
176
     1
 90
       50
176
     1
 90
        3
176
     1
 62
     5
420
      255
176
     1
290
     0
176
     1
 90
       50
176
     1
 90
       50
176
     1
 90
       50
176
     1
290
     0
176
     1
 90
       50
176
     1
 62
   256
176
     0
 40
1.0
176
     0
 90
        2
176
     1
  1
strokes_ogs.tif
176
     1
290
     0
176
     1
 40
1.0
176
     1
 40
1.0
176
     1
  0
VISUALSTYLE
  5
30
102
{ACAD_REACTORS
330
2A
102
}
330
2A
100
AcDbVisualStyle
  2
3dWireframe
 70
     5
177
     3
291
     0
 70
    58
 90
        0
176
     1
 90
        2
176
     1
 90
        0
176
     1
 90
        0
176
     1
 40
0.6
176
     1
 40
30.0
176
     1
 62
     7
420
 16777215
176
     1
 90
        1
176
     1
 90
        4
176
     1
 62
     7
176
     1
 62
   257
176
     1
 90
        1
176
     1
 90
        1
176
     1
 40
1.0
176
     1
 90
        0
176
     1
 62
   257
176
     1
 40
1.0
176
     1
 90
        1
176
     1
 90
        6
176
     1
 90
        2
176
     1
 62
     7
176
     1
 90
        5
176
     1
 90
        0
176
     1
 90
        0
176
     1
290
     0
176
     1
 90
        1
176
     1
 40
0.0
176
     1
 90
        0
176
     1
290
     0
176
     1
290
     1
176
     1
290
     1
176
     1
290
     0
176
     1
290
     0
176
     1
290
     0
176
     1
290
     0
176
     1
290
     0
176
     1
290
     0
176
     1
 90
       50
176
     1
 40
0.0
176
     1
 40
1.0
176
     1
 90
        0
176
     1
 62
    18
420
        0
176
     1
 90
       50
176
     1
 90
        3
176
     1
 62
     5
420
      255
176
     1
290
     0
176
     1
 90
       50
176
     1
 90
       50
176
     1
 90
       50
176
     1
290
     0
176
     1
 90
       50
176
     1
 62
   256
176
     0
 40
1.0
176
     0
 90
        2
176
     1
  1
strokes_ogs.tif
176
     1
290
     0
176
     1
 40
1.0
176
     1
 40
1.0
176
     1
  0
VISUALSTYLE
  5
32
102
{ACAD_REACTORS
330
2A
102
}
330
2A
100
AcDbVisualStyle
  2
Basic
 70
     7
177
     3
291
     1
 70
    58
 90
        1
176
     1
 90
        0
176
     1
 90
        1
176
     1
 90
        0
176
     1
 40
0.6
176
     1
 40
30.0
176
     1
 62
     7
420
 16777215
176
     1
 90
        0
176
     1
 90
        4
176
     1
 62
     7
176
     1
 62
   257
176
     1
 90
        1
176
     1
 90
        1
176
     1
 40
1.0
176
     1
 90
        8
176
     1
 62
     7
176
     1
 40
1.0
176
     1
 90
        1
176
     1
 90
        6
176
     1
 90
        2
176
     1
 62
     7
176
     1
 90
        5
176
     1
 90
        0
176
     1
 90
        0
176
     1
290
     0
176
     1
 90
        1
176
     1
 40
0.0
176
     1
 90
        0
176
     1
290
     0
176
     1
290
     1
176
     1
290
     1
176
     1
290
     0
176
     1
290
     0
176
     1
290
     0
176
     1
290
     0
176
     1
290
     0
176
     1
290
     0
176
     1
 90
       50
176
     1
 40
0.0
176
     1
 40
1.0
176
     1
 90
        0
176
     1
 62
    18
420
        0
176
     1
 90
       50
176
     1
 90
        3
176
     1
 62
     5
420
      255
176
     1
290
     0
176
     1
 90
       50
176
     1
 90
       50
176
     1
 90
       50
176
     1
290
     0
176
     1
 90
       50
176
     1
 62
   256
176
     0
 40
1.0
176
     0
 90
        2
176
     1
  1
strokes_ogs.tif
176
     1
290
     0
176
     1
 40
1.0
176
     1
 40
1.0
176
     1
  0
VISUALSTYLE
  5
36
102
{ACAD_REACTORS
330
2A
102
}
330
2A
100
AcDbVisualStyle
  2
Brighten
 70
    12
177
     3
291
     1
 70
    58
 90
        2
176
     1
 90
        2
176
     1
 90
        0
176
     1
 90
        0
176
     1
 40
0.6
176
     1
 40
30.0
176
     1
 62
     7
420
 16777215
176
     1
 90
        1
176
     1
 90
        4
176
     1
 62
     7
176
     1
 62
   257
176
     1
 90
        1
176
     1
 90
        1
176
     1
 40
1.0
176
     1
 90
        8
176
     1
 62
     7
176
     1
 40
1.0
176
     1
 90
        1
176
     1
 90
        6
176
     1
 90
        2
176
     1
 62
     7
176
     1
 90
        5
176
     1
 90
        0
176
     1
 90
        0
176
     1
290
     0
176
     1
 90
        1
176
     1
 40
50.0
176
     1
 90
        0
176
     1
290
     0
176
     1
290
     1
176
     1
290
     1
176
     1
290
     0
176
     1
290
     0
176
     1
290
     0
176
     1
290
     0
176
     1
290
     0
176
     1
290
     0
176
     1
 90
       50
176
     1
 40
0.0
176
     1
 40
1.0
176
     1
 90
        0
176
     1
 62
    18
420
        0
176
     1
 90
       50
176
     1
 90
        3
176
     1
 62
     5
420
      255
176
     1
290
     0
176
     1
 90
       50
176
     1
 90
       50
176
     1
 90
       50
176
     1
290
     0
176
     1
 90
       50
176
     1
 62
   256
176
     0
 40
1.0
176
     0
 90
        2
176
     1
  1
strokes_ogs.tif
176
     1
290
     0
176
     1
 40
1.0
176
     1
 40
1.0
176
     1
  0
VISUALSTYLE
  5
3A
102
{ACAD_REACTORS
330
2A
102
}
330
2A
100
AcDbVisualStyle
  2
ColorChange
 70
    16
177
     3
291
     1
 70
    58
 90
        2
176
     1
 90
        2
176
     1
 90
        3
176
     1
 90
        0
176
     1
 40
0.6
176
     1
 40
30.0
176
     1
 62
     8
420
  8421504
176
     1
 90
        1
176
     1
 90
        4
176
     1
 62
     7
176
     1
 62
   257
176
     1
 90
        1
176
     1
 90
        1
176
     1
 40
1.0
176
     1
 90
        8
176
     1
 62
     8
420
  8421504
176
     1
 40
1.0
176
     1
 90
        1
176
     1
 90
        6
176
     1
 90
        2
176
     1
 62
     7
176
     1
 90
        5
176
     1
 90
        0
176
     1
 90
        0
176
     1
290
     0
176
     1
 90
        1
176
     1
 40
0.0
176
     1
 90
        0
176
     1
290
     0
176
     1
290
     1
176
     1
290
     1
176
     1
290
     0
176
     1
290
     0
176
     1
290
     0
176
     1
290
     0
176
     1
290
     0
176
     1
290
     0
176
     1
 90
       50
176
     1
 40
0.0
176
     1
 40
1.0
176
     1
 90
        0
176
     1
 62
    18
420
        0
176
     1
 90
       50
176
     1
 90
        3
176
     1
 62
     5
420
      255
176
     1
290
     0
176
     1
 90
       50
176
     1
 90
       50
176
     1
 90
       50
176
     1
290
     0
176
     1
 90
       50
176
     1
 62
   256
176
     0
 40
1.0
176
     0
 90
        2
176
     1
  1
strokes_ogs.tif
176
     1
290
     0
176
     1
 40
1.0
176
     1
 40
1.0
176
     1
  0
VISUALSTYLE
  5
34
102
{ACAD_REACTORS
330
2A
102
}
330
2A
100
AcDbVisualStyle
  2
Conceptual
 70
     9
177
     3
291
     0
 70
    58
 90
        3
176
     1
 90
        2
176
     1
 90
        0
176
     1
 90
        0
176
     1
 40
0.6
176
     1
 40
30.0
176
     1
 62
     7
420
 16777215
176
     1
 90
        2
176
     1
 90
        2
176
     1
 62
     7
176
     1
 62
   257
176
     1
 90
        1
176
     1
 90
        1
176
     1
 40
40.0
176
     1
 90
        8
176
     1
 62
     7
176
     1
 40
1.0
176
     1
 90
        1
176
     1
 90
        6
176
     1
 90
        2
176
     1
 62
     7
176
     1
 90
        3
176
     1
 90
        0
176
     1
 90
        0
176
     1
290
     0
176
     1
 90
        1
176
     1
 40
0.0
176
     1
 90
        0
176
     1
290
     0
176
     1
290
     1
176
     1
290
     1
176
     1
290
     0
176
     1
290
     0
176
     1
290
     0
176
     1
290
     0
176
     1
290
     0
176
     1
290
     0
176
     1
 90
       50
176
     1
 40
0.0
176
     1
 40
1.0
176
     1
 90
        0
176
     1
 62
    18
420
        0
176
     1
 90
       50
176
     1
 90
        3
176
     1
 62
     5
420
      255
176
     1
290
     0
176
     1
 90
       50
176
     1
 90
       50
176
     1
 90
       50
176
     1
290
     0
176
     1
 90
       50
176
     1
 62
   256
176
     0
 40
1.0
176
     0
 90
        2
176
     1
  1
strokes_ogs.tif
176
     1
290
     0
176
     1
 40
1.0
176
     1
 40
1.0
176
     1
  0
VISUALSTYLE
  5
35
102
{ACAD_REACTORS
330
2A
102
}
330
2A
100
AcDbVisualStyle
  2
Dim
 70
    11
177
     3
291
     1
 70
    58
 90
        2
176
     1
 90
        2
176
     1
 90
        0
176
     1
 90
        0
176
     1
 40
0.6
176
     1
 40
30.0
176
     1
 62
     7
420
 16777215
176
     1
 90
        1
176
     1
 90
        4
176
     1
 62
     7
176
     1
 62
   257
176
     1
 90
        1
176
     1
 90
        1
176
     1
 40
1.0
176
     1
 90
        8
176
     1
 62
     7
176
     1
 40
1.0
176
     1
 90
        1
176
     1
 90
        6
176
     1
 90
        2
176
     1
 62
     7
176
     1
 90
        5
176
     1
 90
        0
176
     1
 90
        0
176
     1
290
     0
176
     1
 90
        1
176
     1
 40
-50.0
176
     1
 90
        0
176
     1
290
     0
176
     1
290
     1
176
     1
290
     1
176
     1
290
     0
176
     1
290
     0
176
     1
290
     0
176
     1
290
     0
176
     1
290
     0
176
     1
290
     0
176
     1
 90
       50
176
     1
 40
0.0
176
     1
 40
1.0
176
     1
 90
        0
176
     1
 62
    18
420
        0
176
     1
 90
       50
176
     1
 90
        3
176
     1
 62
     5
420
      255
176
     1
290
     0
176
     1
 90
       50
176
     1
 90
       50
176
     1
 90
       50
176
     1
290
     0
176
     1
 90
       50
176
     1
 62
   256
176
     0
 40
1.0
176
     0
 90
        2
176
     1
  1
strokes_ogs.tif
176
     1
290
     0
176
     1
 40
1.0
176
     1
 40
1.0
176
     1
  0
VISUALSTYLE
  5
1EB
102
{ACAD_REACTORS
330
2A
102
}
330
2A
100
AcDbVisualStyle
  2
EdgeColorOff
 70
    22
177
     3
291
     1
 70
    58
 90
        2
176
     0
 90
        2
176
     0
 90
        0
176
     0
 90
        0
176
     0
 40
0.6
176
     0
 40
30.0
176
     0
 62
     7
420
 16777215
176
     0
 90
        1
176
     0
 90
        4
176
     0
 62
     7
176
     0
 62
   257
176
     0
 90
        1
176
     0
 90
        1
176
     0
 40
1.0
176
     0
 90
        8
176
     2
 62
     7
176
     0
 40
1.0
176
     0
 90
        1
176
     0
 90
        6
176
     0
 90
        2
176
     0
 62
     7
176
     0
 90
        5
176
     0
 90
        0
176
     0
 90
        0
176
     0
290
     0
176
     0
 90
        1
176
     0
 40
0.0
176
     0
 90
        0
176
     0
290
     0
176
     1
290
     1
176
     1
290
     1
176
     1
290
     0
176
     1
290
     0
176
     1
290
     0
176
     1
290
     0
176
     1
290
     0
176
     1
290
     0
176
     1
 90
       50
176
     0
 40
0.0
176
     0
 40
1.0
176
     0
 90
        0
176
     0
 62
    18
420
        0
176
     0
 90
       50
176
     0
 90
        3
176
     0
 62
     5
420
      255
176
     0
290
     0
176
     1
 90
       50
176
     0
 90
       50
176
     0
 90
       50
176
     0
290
     0
176
     1
 90
       50
176
     0
 62
   256
176
     0
 40
1.0
176
     0
 90
        2
176
     0
  1
strokes_ogs.tif
176
     0
290
     0
176
     1
 40
1.0
176
     0
 40
1.0
176
     0
  0
VISUALSTYLE
  5
39
102
{ACAD_REACTORS
330
2A
102
}
330
2A
100
AcDbVisualStyle
  2
Facepattern
 70
    15
177
     3
291
     1
 70
    58
 90
        2
176
     1
 90
        2
176
     1
 90
        0
176
     1
 90
        0
176
     1
 40
0.6
176
     1
 40
30.0
176
     1
 62
     7
420
 16777215
176
     1
 90
        1
176
     1
 90
        4
176
     1
 62
     7
176
     1
 62
   257
176
     1
 90
        1
176
     1
 90
        1
176
     1
 40
1.0
176
     1
 90
        8
176
     1
 62
     7
176
     1
 40
1.0
176
     1
 90
        1
176
     1
 90
        6
176
     1
 90
        2
176
     1
 62
     7
176
     1
 90
        5
176
     1
 90
        0
176
     1
 90
        0
176
     1
290
     0
176
     1
 90
        1
176
     1
 40
0.0
176
     1
 90
        0
176
     1
290
     0
176
     1
290
     1
176
     1
290
     1
176
     1
290
     0
176
     1
290
     0
176
     1
290
     0
176
     1
290
     0
176
     1
290
     0
176
     1
290
     0
176
     1
 90
       50
176
     1
 40
0.0
176
     1
 40
1.0
176
     1
 90
        0
176
     1
 62
    18
420
        0
176
     1
 90
       50
176
     1
 90
        3
176
     1
 62
     5
420
      255
176
     1
290
     0
176
     1
 90
       50
176
     1
 90
       50
176
     1
 90
       50
176
     1
290
     0
176
     1
 90
       50
176
     1
 62
   256
176
     0
 40
1.0
176
     0
 90
        2
176
     1
  1
strokes_ogs.tif
176
     1
290
     0
176
     1
 40
1.0
176
     1
 40
1.0
176
     1
  0
VISUALSTYLE
  5
2B
102
{ACAD_REACTORS
330
2A
102
}
330
2A
100
AcDbVisualStyle
  2
Flat
 70
     0
177
     3
291
     1
 70
    58
 90
        2
176
     1
 90
        1
176
     1
 90
        1
176
     1
 90
        2
176
     1
 40
0.6
176
     1
 40
30.0
176
     1
 62
     7
420
 16777215
176
     1
 90
        0
176
     1
 90
        4
176
     1
 62
     7
176
     1
 62
   257
176
     1
 90
        1
176
     1
 90
        1
176
     1
 40
1.0
176
     1
 90
        8
176
     1
 62
     7
176
     1
 40
1.0
176
     1
 90
        1
176
     1
 90
        6
176
     1
 90
        2
176
     1
 62
     7
176
     1
 90
        5
176
     1
 90
        0
176
     1
 90
        0
176
     1
290
     0
176
     1
 90
       13
176
     1
 40
0.0
176
     1
 90
        0
176
     1
290
     0
176
     1
290
     1
176
     1
290
     1
176
     1
290
     0
176
     1
290
     0
176
     1
290
     0
176
     1
290
     0
176
     1
290
     0
176
     1
290
     0
176
     1
 90
       50
176
     1
 40
0.0
176
     1
 40
1.0
176
     1
 90
        0
176
     1
 62
    18
420
        0
176
     1
 90
       50
176
     1
 90
        3
176
     1
 62
     5
420
      255
176
     1
290
     0
176
     1
 90
       50
176
     1
 90
       50
176
     1
 90
       50
176
     1
290
     0
176
     1
 90
       50
176
     1
 62
   256
176
     0
 40
1.0
176
     0
 90
        2
176
     1
  1
strokes_ogs.tif
176
     1
290
     0
176
     1
 40
1.0
176
     1
 40
1.0
176
     1
  0
VISUALSTYLE
  5
2C
102
{ACAD_REACTORS
330
2A
102
}
330
2A
100
AcDbVisualStyle
  2
FlatWithEdges
 70
     1
177
     3
291
     1
 70
    58
 90
        2
176
     1
 90
        1
176
     1
 90
        1
176
     1
 90
        2
176
     1
 40
0.6
176
     1
 40
30.0
176
     1
 62
     7
420
 16777215
176
     1
 90
        1
176
     1
 90
        4
176
     1
 62
     7
176
     1
 62
   257
176
     1
 90
        1
176
     1
 90
        1
176
     1
 40
1.0
176
     1
 90
        0
176
     1
 62
   257
176
     1
 40
1.0
176
     1
 90
        1
176
     1
 90
        6
176
     1
 90
        2
176
     1
 62
     7
176
     1
 90
        5
176
     1
 90
        0
176
     1
 90
        0
176
     1
290
     0
176
     1
 90
       13
176
     1
 40
0.0
176
     1
 90
        0
176
     1
290
     0
176
     1
290
     1
176
     1
290
     1
176
     1
290
     0
176
     1
290
     0
176
     1
290
     0
176
     1
290
     0
176
     1
290
     0
176
     1
290
     0
176
     1
 90
       50
176
     1
 40
0.0
176
     1
 40
1.0
176
     1
 90
        0
176
     1
 62
    18
420
        0
176
     1
 90
       50
176
     1
 90
        3
176
     1
 62
     5
420
      255
176
     1
290
     0
176
     1
 90
       50
176
     1
 90
       50
176
     1
 90
       50
176
     1
290
     0
176
     1
 90
       50
176
     1
 62
   256
176
     0
 40
1.0
176
     0
 90
        2
176
     1
  1
strokes_ogs.tif
176
     1
290
     0
176
     1
 40
1.0
176
     1
 40
1.0
176
     1
  0
VISUALSTYLE
  5
2D
102
{ACAD_REACTORS
330
2A
102
}
330
2A
100
AcDbVisualStyle
  2
Gouraud
 70
     2
177
     3
291
     1
 70
    58
 90
        2
176
     1
 90
        2
176
     1
 90
        1
176
     1
 90
        2
176
     1
 40
0.6
176
     1
 40
30.0
176
     1
 62
     7
420
 16777215
176
     1
 90
        0
176
     1
 90
        4
176
     1
 62
     7
176
     1
 62
   257
176
     1
 90
        1
176
     1
 90
        1
176
     1
 40
1.0
176
     1
 90
        0
176
     1
 62
     7
176
     1
 40
1.0
176
     1
 90
        1
176
     1
 90
        6
176
     1
 90
        2
176
     1
 62
     7
176
     1
 90
        5
176
     1
 90
        0
176
     1
 90
        0
176
     1
290
     0
176
     1
 90
       13
176
     1
 40
0.0
176
     1
 90
        0
176
     1
290
     0
176
     1
290
     1
176
     1
290
     1
176
     1
290
     0
176
     1
290
     0
176
     1
290
     0
176
     1
290
     0
176
     1
290
     0
176
     1
290
     0
176
     1
 90
       50
176
     1
 40
0.0
176
     1
 40
1.0
176
     1
 90
        0
176
     1
 62
    18
420
        0
176
     1
 90
       50
176
     1
 90
        3
176
     1
 62
     5
420
      255
176
     1
290
     0
176
     1
 90
       50
176
     1
 90
       50
176
     1
 90
       50
176
     1
290
     0
176
     1
 90
       50
176
     1
 62
   256
176
     0
 40
1.0
176
     0
 90
        2
176
     1
  1
strokes_ogs.tif
176
     1
290
     0
176
     1
 40
1.0
176
     1
 40
1.0
176
     1
  0
VISUALSTYLE
  5
2E
102
{ACAD_REACTORS
330
2A
102
}
330
2A
100
AcDbVisualStyle
  2
GouraudWithEdges
 70
     3
177
     3
291
     1
 70
    58
 90
        2
176
     1
 90
        2
176
     1
 90
        1
176
     1
 90
        2
176
     1
 40
0.6
176
     1
 40
30.0
176
     1
 62
     7
420
 16777215
176
     1
 90
        1
176
     1
 90
        4
176
     1
 62
     7
176
     1
 62
   257
176
     1
 90
        1
176
     1
 90
        1
176
     1
 40
1.0
176
     1
 90
        0
176
     1
 62
   257
176
     1
 40
1.0
176
     1
 90
        1
176
     1
 90
        6
176
     1
 90
        2
176
     1
 62
     7
176
     1
 90
        5
176
     1
 90
        0
176
     1
 90
        0
176
     1
290
     0
176
     1
 90
       13
176
     1
 40
0.0
176
     1
 90
        0
176
     1
290
     0
176
     1
290
     1
176
     1
290
     1
176
     1
290
     0
176
     1
290
     0
176
     1
290
     0
176
     1
290
     0
176
     1
290
     0
176
     1
290
     0
176
     1
 90
       50
176
     1
 40
0.0
176
     1
 40
1.0
176
     1
 90
        0
176
     1
 62
    18
420
        0
176
     1
 90
       50
176
     1
 90
        3
176
     1
 62
     5
420
      255
176
     1
290
     0
176
     1
 90
       50
176
     1
 90
       50
176
     1
 90
       50
176
     1
290
     0
176
     1
 90
       50
176
     1
 62
   256
176
     0
 40
1.0
176
     0
 90
        2
176
     1
  1
strokes_ogs.tif
176
     1
290
     0
176
     1
 40
1.0
176
     1
 40
1.0
176
     1
  0
VISUALSTYLE
  5
1E3
102
{ACAD_REACTORS
330
2A
102
}
330
2A
100
AcDbVisualStyle
  2
Hidden
 70
     6
177
     3
291
     0
 70
    58
 90
        1
176
     1
 90
        2
176
     1
 90
        2
176
     1
 90
        0
176
     1
 40
0.6
176
     1
 40
30.0
176
     1
 62
     7
420
 16777215
176
     1
 90
        2
176
     1
 90
        2
176
     1
 62
     7
176
     1
 62
   257
176
     1
 90
        2
176
     1
 90
        1
176
     1
 40
40.0
176
     1
 90
        0
176
     1
 62
   257
176
     1
 40
1.0
176
     1
 90
        1
176
     1
 90
        6
176
     1
 90
        2
176
     1
 62
     7
176
     1
 90
        3
176
     1
 90
        0
176
     1
 90
        0
176
     1
290
     0
176
     1
 90
        1
176
     1
 40
0.0
176
     1
 90
        0
176
     1
290
     0
176
     1
290
     1
176
     1
290
     1
176
     1
290
     0
176
     1
290
     0
176
     1
290
     0
176
     1
290
     0
176
     1
290
     0
176
     1
290
     0
176
     1
 90
       50
176
     1
 40
0.0
176
     1
 40
1.0
176
     1
 90
        0
176
     1
 62
    18
420
        0
176
     1
 90
       50
176
     1
 90
        3
176
     1
 62
     5
420
      255
176
     1
290
     0
176
     1
 90
       50
176
     1
 90
       50
176
     1
 90
       50
176
     1
290
     0
176
     1
 90
       50
176
     1
 62
   256
176
     0
 40
1.0
176
     0
 90
        2
176
     1
  1
strokes_ogs.tif
176
     1
290
     0
176
     1
 40
1.0
176
     1
 40
1.0
176
     1
  0
VISUALSTYLE
  5
1E9
102
{ACAD_REACTORS
330
2A
102
}
330
2A
100
AcDbVisualStyle
  2
JitterOff
 70
    20
177
     3
291
     1
 70
    58
 90
        2
176
     0
 90
        2
176
     0
 90
        0
176
     0
 90
        0
176
     0
 40
0.6
176
     0
 40
30.0
176
     0
 62
     7
420
 16777215
176
     0
 90
        1
176
     0
 90
        4
176
     0
 62
     7
176
     0
 62
   257
176
     0
 90
        1
176
     0
 90
        1
176
     0
 40
1.0
176
     0
 90
       10
176
     2
 62
     7
176
     0
 40
1.0
176
     0
 90
        1
176
     0
 90
        6
176
     0
 90
        2
176
     0
 62
     7
176
     0
 90
        5
176
     0
 90
        0
176
     0
 90
        0
176
     0
290
     0
176
     0
 90
        1
176
     0
 40
0.0
176
     0
 90
        0
176
     0
290
     0
176
     1
290
     1
176
     1
290
     1
176
     1
290
     0
176
     1
290
     0
176
     1
290
     0
176
     1
290
     0
176
     1
290
     0
176
     1
290
     0
176
     1
 90
       50
176
     0
 40
0.0
176
     0
 40
1.0
176
     0
 90
        0
176
     0
 62
    18
420
        0
176
     0
 90
       50
176
     0
 90
        3
176
     0
 62
     5
420
      255
176
     0
290
     0
176
     1
 90
       50
176
     0
 90
       50
176
     0
 90
       50
176
     0
290
     0
176
     1
 90
       50
176
     0
 62
   256
176
     0
 40
1.0
176
     0
 90
        2
176
     0
  1
strokes_ogs.tif
176
     0
290
     0
176
     1
 40
1.0
176
     0
 40
1.0
176
     0
  0
VISUALSTYLE
  5
38
102
{ACAD_REACTORS
330
2A
102
}
330
2A
100
AcDbVisualStyle
  2
Linepattern
 70
    14
177
     3
291
     1
 70
    58
 90
        2
176
     1
 90
        2
176
     1
 90
        0
176
     1
 90
        0
176
     1
 40
0.6
176
     1
 40
30.0
176
     1
 62
     7
420
 16777215
176
     1
 90
        1
176
     1
 90
        4
176
     1
 62
     7
176
     1
 62
   257
176
     1
 90
        7
176
     1
 90
        7
176
     1
 40
1.0
176
     1
 90
        8
176
     1
 62
     7
176
     1
 40
1.0
176
     1
 90
        1
176
     1
 90
        6
176
     1
 90
        2
176
     1
 62
     7
176
     1
 90
        5
176
     1
 90
        0
176
     1
 90
        0
176
     1
290
     0
176
     1
 90
        1
176
     1
 40
0.0
176
     1
 90
        0
176
     1
290
     0
176
     1
290
     1
176
     1
290
     1
176
     1
290
     0
176
     1
290
     0
176
     1
290
     0
176
     1
290
     0
176
     1
290
     0
176
     1
290
     0
176
     1
 90
       50
176
     1
 40
0.0
176
     1
 40
1.0
176
     1
 90
        0
176
     1
 62
    18
420
        0
176
     1
 90
       50
176
     1
 90
        3
176
     1
 62
     5
420
      255
176
     1
290
     0
176
     1
 90
       50
176
     1
 90
       50
176
     1
 90
       50
176
     1
290
     0
176
     1
 90
       50
176
     1
 62
   256
176
     0
 40
1.0
176
     0
 90
        2
176
     1
  1
strokes_ogs.tif
176
     1
290
     0
176
     1
 40
1.0
176
     1
 40
1.0
176
     1
  0
VISUALSTYLE
  5
1EA
102
{ACAD_REACTORS
330
2A
102
}
330
2A
100
AcDbVisualStyle
  2
OverhangOff
 70
    21
177
     3
291
     1
 70
    58
 90
        2
176
     0
 90
        2
176
     0
 90
        0
176
     0
 90
        0
176
     0
 40
0.6
176
     0
 40
30.0
176
     0
 62
     7
420
 16777215
176
     0
 90
        1
176
     0
 90
        4
176
     0
 62
     7
176
     0
 62
   257
176
     0
 90
        1
176
     0
 90
        1
176
     0
 40
1.0
176
     0
 90
        9
176
     2
 62
     7
176
     0
 40
1.0
176
     0
 90
        1
176
     0
 90
        6
176
     0
 90
        2
176
     0
 62
     7
176
     0
 90
        5
176
     0
 90
        0
176
     0
 90
        0
176
     0
290
     0
176
     0
 90
        1
176
     0
 40
0.0
176
     0
 90
        0
176
     0
290
     0
176
     1
290
     1
176
     1
290
     1
176
     1
290
     0
176
     1
290
     0
176
     1
290
     0
176
     1
290
     0
176
     1
290
     0
176
     1
290
     0
176
     1
 90
       50
176
     0
 40
0.0
176
     0
 40
1.0
176
     0
 90
        0
176
     0
 62
    18
420
        0
176
     0
 90
       50
176
     0
 90
        3
176
     0
 62
     5
420
      255
176
     0
290
     0
176
     1
 90
       50
176
     0
 90
       50
176
     0
 90
       50
176
     0
290
     0
176
     1
 90
       50
176
     0
 62
   256
176
     0
 40
1.0
176
     0
 90
        2
176
     0
  1
strokes_ogs.tif
176
     0
290
     0
176
     1
 40
1.0
176
     0
 40
1.0
176
     0
  0
VISUALSTYLE
  5
33
102
{ACAD_REACTORS
330
2A
102
}
330
2A
100
AcDbVisualStyle
  2
Realistic
 70
     8
177
     3
291
     0
 70
    58
 90
        2
176
     1
 90
        2
176
     1
 90
        0
176
     1
 90
        0
176
     1
 40
0.6
176
     1
 40
30.0
176
     1
 62
     7
420
 16777215
176
     1
 90
        1
176
     1
 90
        0
176
     1
 62
     7
176
     1
 62
   257
176
     1
 90
        1
176
     1
 90
        1
176
     1
 40
1.0
176
     1
 90
        8
176
     1
 62
     8
420
  7895160
176
     1
 40
1.0
176
     1
 90
        1
176
     1
 90
        6
176
     1
 90
        2
176
     1
 62
     7
176
     1
 90
        5
176
     1
 90
        0
176
     1
 90
        0
176
     1
290
     0
176
     1
 90
       13
176
     1
 40
0.0
176
     1
 90
        0
176
     1
290
     0
176
     1
290
     1
176
     1
290
     1
176
     1
290
     0
176
     1
290
     0
176
     1
290
     0
176
     1
290
     0
176
     1
290
     0
176
     1
290
     0
176
     1
 90
       50
176
     1
 40
0.0
176
     1
 40
1.0
176
     1
 90
        0
176
     1
 62
    18
420
        0
176
     1
 90
       50
176
     1
 90
        3
176
     1
 62
     5
420
      255
176
     1
290
     0
176
     1
 90
       50
176
     1
 90
       50
176
     1
 90
       50
176
     1
290
     0
176
     1
 90
       50
176
     1
 62
   256
176
     0
 40
1.0
176
     0
 90
        2
176
     1
  1
strokes_ogs.tif
176
     1
290
     0
176
     1
 40
1.0
176
     1
 40
1.0
176
     1
  0
VISUALSTYLE
  5
1E8
102
{ACAD_REACTORS
330
2A
102
}
330
2A
100
AcDbVisualStyle
  2
Shaded
 70
    27
177
     3
291
     0
 70
    58
 90
        2
176
     1
 90
        2
176
     1
 90
        1
176
     1
 90
        2
176
     1
 40
0.6
176
     1
 40
30.0
176
     1
 62
     7
420
 16777215
176
     1
 90
        0
176
     1
 90
        4
176
     1
 62
     7
176
     1
 62
   257
176
     1
 90
        1
176
     1
 90
        1
176
     1
 40
1.0
176
     1
 90
        8
176
     1
 62
   257
176
     1
 40
1.0
176
     1
 90
        1
176
     1
 90
        6
176
     1
 90
        2
176
     1
 62
     8
420
  7895160
176
     1
 90
        3
176
     1
 90
        0
176
     1
 90
        0
176
     1
290
     0
176
     1
 90
        5
176
     1
 40
0.0
176
     1
 90
        0
176
     1
290
     0
176
     1
290
     1
176
     1
290
     1
176
     1
290
     0
176
     1
290
     0
176
     1
290
     0
176
     1
290
     0
176
     1
290
     0
176
     1
290
     0
176
     1
 90
       50
176
     1
 40
0.0
176
     1
 40
1.0
176
     1
 90
        0
176
     1
 62
    18
420
        0
176
     1
 90
       50
176
     1
 90
        3
176
     1
 62
     5
420
      255
176
     1
290
     0
176
     1
 90
       50
176
     1
 90
       50
176
     1
 90
       50
176
     1
290
     0
176
     1
 90
       50
176
     1
 62
   256
176
     0
 40
1.0
176
     0
 90
        2
176
     1
  1
strokes_ogs.tif
176
     1
290
     0
176
     1
 40
1.0
176
     1
 40
1.0
176
     1
  0
VISUALSTYLE
  5
1E7
102
{ACAD_REACTORS
330
2A
102
}
330
2A
100
AcDbVisualStyle
  2
Shaded with edges
 70
    26
177
     3
291
     0
 70
    58
 90
        2
176
     1
 90
        2
176
     1
 90
        1
176
     1
 90
        2
176
     1
 40
0.6
176
     1
 40
30.0
176
     1
 62
     7
420
 16777215
176
     1
 90
        1
176
     1
 90
        2
176
     1
 62
     7
176
     1
 62
   257
176
     1
 90
        2
176
     1
 90
        1
176
     1
 40
1.0
176
     1
 90
        8
176
     1
 62
   257
176
     1
 40
1.0
176
     1
 90
        1
176
     1
 90
        6
176
     1
 90
        2
176
     1
 62
     7
176
     1
 90
        3
176
     1
 90
        0
176
     1
 90
        0
176
     1
290
     0
176
     1
 90
        5
176
     1
 40
0.0
176
     1
 90
        0
176
     1
290
     0
176
     1
290
     1
176
     1
290
     1
176
     1
290
     0
176
     1
290
     0
176
     1
290
     0
176
     1
290
     0
176
     1
290
     0
176
     1
290
     0
176
     1
 90
       50
176
     1
 40
0.0
176
     1
 40
1.0
176
     1
 90
        0
176
     1
 62
    18
420
        0
176
     1
 90
       50
176
     1
 90
        3
176
     1
 62
     5
420
      255
176
     1
290
     0
176
     1
 90
       50
176
     1
 90
       50
176
     1
 90
       50
176
     1
290
     0
176
     1
 90
       50
176
     1
 62
   256
176
     0
 40
1.0
176
     0
 90
        2
176
     1
  1
strokes_ogs.tif
176
     1
290
     0
176
     1
 40
1.0
176
     1
 40
1.0
176
     1
  0
VISUALSTYLE
  5
1E4
102
{ACAD_REACTORS
330
2A
102
}
330
2A
100
AcDbVisualStyle
  2
Shades of Gray
 70
    23
177
     3
291
     0
 70
    58
 90
        2
176
     1
 90
        2
176
     1
 90
        3
176
     1
 90
        0
176
     1
 40
0.6
176
     1
 40
30.0
176
     1
 62
     7
420
 16777215
176
     1
 90
        2
176
     1
 90
        2
176
     1
 62
     7
176
     1
 62
     7
176
     1
 90
        1
176
     1
 90
        1
176
     1
 40
40.0
176
     1
 90
        8
176
     1
 62
     7
176
     1
 40
1.0
176
     1
 90
        1
176
     1
 90
        6
176
     1
 90
        2
176
     1
 62
     7
176
     1
 90
        3
176
     1
 90
        0
176
     1
 90
        0
176
     1
290
     0
176
     1
 90
        1
176
     1
 40
0.0
176
     1
 90
        0
176
     1
290
     0
176
     1
290
     1
176
     1
290
     1
176
     1
290
     0
176
     1
290
     0
176
     1
290
     0
176
     1
290
     0
176
     1
290
     0
176
     1
290
     0
176
     1
 90
       50
176
     1
 40
0.0
176
     1
 40
1.0
176
     1
 90
        0
176
     1
 62
    18
420
        0
176
     1
 90
       50
176
     1
 90
        3
176
     1
 62
     5
420
      255
176
     1
290
     0
176
     1
 90
       50
176
     1
 90
       50
176
     1
 90
       50
176
     1
290
     0
176
     1
 90
       50
176
     1
 62
   256
176
     0
 40
1.0
176
     0
 90
        2
176
     1
  1
strokes_ogs.tif
176
     1
290
     0
176
     1
 40
1.0
176
     1
 40
1.0
176
     1
  0
VISUALSTYLE
  5
1E5
102
{ACAD_REACTORS
330
2A
102
}
330
2A
100
AcDbVisualStyle
  2
Sketchy
 70
    24
177
     3
291
     0
 70
    58
 90
        1
176
     1
 90
        2
176
     1
 90
        2
176
     1
 90
        0
176
     1
 40
0.6
176
     1
 40
30.0
176
     1
 62
     7
420
 16777215
176
     1
 90
        2
176
     1
 90
        2
176
     1
 62
     7
176
     1
 62
     7
176
     1
 90
        1
176
     1
 90
        1
176
     1
 40
40.0
176
     1
 90
       11
176
     1
 62
     7
176
     1
 40
1.0
176
     1
 90
        1
176
     1
 90
        6
176
     1
 90
        2
176
     1
 62
     7
176
     1
 90
        6
176
     1
 90
        0
176
     1
 90
        0
176
     1
290
     0
176
     1
 90
        1
176
     1
 40
0.0
176
     1
 90
        0
176
     1
290
     0
176
     1
290
     1
176
     1
290
     1
176
     1
290
     0
176
     1
290
     0
176
     1
290
     0
176
     1
290
     0
176
     1
290
     0
176
     1
290
     0
176
     1
 90
       50
176
     1
 40
0.0
176
     1
 40
1.0
176
     1
 90
        0
176
     1
 62
    18
420
        0
176
     1
 90
       50
176
     1
 90
        3
176
     1
 62
     5
420
      255
176
     1
290
     0
176
     1
 90
       50
176
     1
 90
       50
176
     1
 90
       50
176
     1
290
     0
176
     1
 90
       50
176
     1
 62
   256
176
     0
 40
1.0
176
     0
 90
        2
176
     1
  1
strokes_ogs.tif
176
     1
290
     0
176
     1
 40
1.0
176
     1
 40
1.0
176
     1
  0
VISUALSTYLE
  5
37
102
{ACAD_REACTORS
330
2A
102
}
330
2A
100
AcDbVisualStyle
  2
Thicken
 70
    13
177
     3
291
     1
 70
    58
 90
        2
176
     1
 90
        2
176
     1
 90
        0
176
     1
 90
        0
176
     1
 40
0.6
176
     1
 40
30.0
176
     1
 62
     7
420
 16777215
176
     1
 90
        1
176
     1
 90
        4
176
     1
 62
     7
176
     1
 62
   257
176
     1
 90
        1
176
     1
 90
        1
176
     1
 40
1.0
176
     1
 90
       12
176
     1
 62
     7
176
     1
 40
1.0
176
     1
 90
        1
176
     1
 90
        6
176
     1
 90
        2
176
     1
 62
     7
176
     1
 90
        5
176
     1
 90
        0
176
     1
 90
        0
176
     1
290
     0
176
     1
 90
        1
176
     1
 40
0.0
176
     1
 90
        0
176
     1
290
     0
176
     1
290
     1
176
     1
290
     1
176
     1
290
     0
176
     1
290
     0
176
     1
290
     0
176
     1
290
     0
176
     1
290
     0
176
     1
290
     0
176
     1
 90
       50
176
     1
 40
0.0
176
     1
 40
1.0
176
     1
 90
        0
176
     1
 62
    18
420
        0
176
     1
 90
       50
176
     1
 90
        3
176
     1
 62
     5
420
      255
176
     1
290
     0
176
     1
 90
       50
176
     1
 90
       50
176
     1
 90
       50
176
     1
290
     0
176
     1
 90
       50
176
     1
 62
   256
176
     0
 40
1.0
176
     0
 90
        2
176
     1
  1
strokes_ogs.tif
176
     1
290
     0
176
     1
 40
1.0
176
     1
 40
1.0
176
     1
  0
VISUALSTYLE
  5
1E2
102
{ACAD_REACTORS
330
2A
102
}
330
2A
100
AcDbVisualStyle
  2
Wireframe
 70
     5
177
     3
291
     0
 70
    58
 90
        0
176
     1
 90
        2
176
     1
 90
        0
176
     1
 90
        0
176
     1
 40
0.6
176
     1
 40
30.0
176
     1
 62
     7
420
 16777215
176
     1
 90
        1
176
     1
 90
        4
176
     1
 62
     7
176
     1
 62
   257
176
     1
 90
        1
176
     1
 90
        1
176
     1
 40
1.0
176
     1
 90
        0
176
     1
 62
   257
176
     1
 40
1.0
176
     1
 90
        1
176
     1
 90
        6
176
     1
 90
        2
176
     1
 62
     7
176
     1
 90
        3
176
     1
 90
        0
176
     1
 90
        0
176
     1
290
     0
176
     1
 90
        1
176
     1
 40
0.0
176
     1
 90
        0
176
     1
290
     0
176
     1
290
     1
176
     1
290
     1
176
     1
290
     0
176
     1
290
     0
176
     1
290
     0
176
     1
290
     0
176
     1
290
     0
176
     1
290
     0
176
     1
 90
       50
176
     1
 40
0.0
176
     1
 40
1.0
176
     1
 90
        0
176
     1
 62
    18
420
        0
176
     1
 90
       50
176
     1
 90
        3
176
     1
 62
     5
420
      255
176
     1
290
     0
176
     1
 90
       50
176
     1
 90
       50
176
     1
 90
       50
176
     1
290
     0
176
     1
 90
       50
176
     1
 62
   256
176
     0
 40
1.0
176
     0
 90
        2
176
     1
  1
strokes_ogs.tif
176
     1
290
     0
176
     1
 40
1.0
176
     1
 40
1.0
176
     1
  0
VISUALSTYLE
  5
1E6
102
{ACAD_REACTORS
330
2A
102
}
330
2A
100
AcDbVisualStyle
  2
X-Ray
 70
    25
177
     3
291
     0
 70
    58
 90
        2
176
     1
 90
        2
176
     1
 90
        1
176
     1
 90
        1
176
     1
 40
0.5
176
     1
 40
30.0
176
     1
 62
     7
420
 16777215
176
     1
 90
        1
176
     1
 90
        0
176
     1
 62
     7
176
     1
 62
   257
176
     1
 90
        1
176
     1
 90
        1
176
     1
 40
1.0
176
     1
 90
        8
176
     1
 62
     7
176
     1
 40
1.0
176
     1
 90
        1
176
     1
 90
        6
176
     1
 90
        2
176
     1
 62
     7
176
     1
 90
        3
176
     1
 90
        0
176
     1
 90
        0
176
     1
290
     0
176
     1
 90
       13
176
     1
 40
0.0
176
     1
 90
        0
176
     1
290
     0
176
     1
290
     1
176
     1
290
     1
176
     1
290
     0
176
     1
290
     0
176
     1
290
     0
176
     1
290
     0
176
     1
290
     0
176
     1
290
     0
176
     1
 90
       50
176
     1
 40
0.0
176
     1
 40
1.0
176
     1
 90
        0
176
     1
 62
    18
420
        0
176
     1
 90
       50
176
     1
 90
        3
176
     1
 62
     5
420
      255
176
     1
290
     0
176
     1
 90
       50
176
     1
 90
       50
176
     1
 90
       50
176
     1
290
     0
176
     1
 90
       50
176
     1
 62
   256
176
     0
 40
1.0
176
     0
 90
        2
176
     1
  1
strokes_ogs.tif
176
     1
290
     0
176
     1
 40
1.0
176
     1
 40
1.0
176
     1
  0
DICTIONARYVAR
  5
289
102
{ACAD_REACTORS
330
284
102
}
330
284
100
DictionaryVariables
280
     0
  1
1:1
  0
DICTIONARYVAR
  5
286
102
{ACAD_REACTORS
330
284
102
}
330
284
100
DictionaryVariables
280
     0
  1
STANDARD
  0
DICTIONARYVAR
  5
285
102
{ACAD_REACTORS
330
284
102
}
330
284
100
DictionaryVariables
280
     0
  1
STANDARD
  0
DICTIONARYVAR
  5
287
102
{ACAD_REACTORS
330
284
102
}
330
284
100
DictionaryVariables
280
     0
  1
Imperial24
  0
DICTIONARYVAR
  5
288
102
{ACAD_REACTORS
330
284
102
}
330
284
100
DictionaryVariables
280
     0
  1
Imperial24
  0
DICTIONARY
  5
2FE
330
1ED
100
AcDbDictionary
280
     1
281
     1
  3
ACAD_ROUNDTRIP_2008_TABLESTYLE_CELLSTYLEMAP
360
2FF
  0
CELLSTYLEMAP
  5
2FF
102
{ACAD_REACTORS
330
2FE
102
}
330
2FE
100
AcDbCellStyleMap
 90
        3
300
CELLSTYLE
  1
TABLEFORMAT_BEGIN
 90
        5
170
     1
 91
        0
 92
    32768
 62
   257
 93
        1
300
CONTENTFORMAT
  1
CONTENTFORMAT_BEGIN
 90
        0
 91
        0
 92
      512
 93
        0
300

 40
0.0
140
1.0
 94
        5
 62
     0
340
11
144
0.25
309
CONTENTFORMAT_END
171
     0
 94
        0
309
TABLEFORMAT_END
  1
CELLSTYLE_BEGIN
 90
        1
 91
        1
300
_TITLE
309
CELLSTYLE_END
300
CELLSTYLE
  1
TABLEFORMAT_BEGIN
 90
        5
170
     1
 91
        0
 92
        0
 62
   257
 93
        1
300
CONTENTFORMAT
  1
CONTENTFORMAT_BEGIN
 90
        0
 91
        0
 92
      512
 93
        0
300

 40
0.0
140
1.0
 94
        5
 62
     0
340
11
144
0.18
309
CONTENTFORMAT_END
171
     0
 94
        0
309
TABLEFORMAT_END
  1
CELLSTYLE_BEGIN
 90
        2
 91
        1
300
_HEADER
309
CELLSTYLE_END
300
CELLSTYLE
  1
TABLEFORMAT_BEGIN
 90
        5
170
     1
 91
        0
 92
        0
 62
   257
 93
        1
300
CONTENTFORMAT
  1
CONTENTFORMAT_BEGIN
 90
        0
 91
        0
 92
      512
 93
        0
300

 40
0.0
140
1.0
 94
        2
 62
     0
340
11
144
0.18
309
CONTENTFORMAT_END
171
     0
 94
        0
309
TABLEFORMAT_END
  1
CELLSTYLE_BEGIN
 90
        3
 91
        2
300
_DATA
309
CELLSTYLE_END
  0
ENDSEC
  0
SECTION
  2
ACDSDATA
 70
     2
 71
     8
  0
ACDSSCHEMA
 90
        0
  1
AcDb_Thumbnail_Schema
  2
AcDbDs::ID
280
    10
 91
        8
  2
Thumbnail_Data
280
    15
 91
        0
101
ACDSRECORD
 95
        0
 90
        1
  2
AcDbDs::TreatedAsObjectData
280
     1
291
     1
101
ACDSRECORD
 95
        0
 90
        2
  2
AcDbDs::Legacy
280
     1
291
     1
101
ACDSRECORD
  1
AcDbDs::ID
 90
        3
  2
AcDs:Indexable
280
     1
291
     1
101
ACDSRECORD
  1
AcDbDs::ID
 90
        4
  2
AcDbDs::HandleAttribute
280
     7
282
     1
  0
ACDSSCHEMA
 90
        1
  1
AcDbDs::TreatedAsObjectDataSchema
  2
AcDbDs::TreatedAsObjectData
280
     1
 91
        0
  0
ACDSSCHEMA
 90
        2
  1
AcDbDs::LegacySchema
  2
AcDbDs::Legacy
280
     1
 91
        0
  0
ACDSSCHEMA
 90
        3
  1
AcDbDs::IndexedPropertySchema
  2
AcDs:Indexable
280
     1
 91
        0
  0
ACDSSCHEMA
 90
        4
  1
AcDbDs::HandleAttributeSchema
  2
AcDbDs::HandleAttribute
280
     7
 91
        1
284
     1
  0
ACDSRECORD
 90
        0
  2
AcDbDs::ID
280
    10
320
22
  2
Thumbnail_Data
280
    15
 94
     1323
310
89504E470D0A1A0A0000000D4948445200000100000000C608030000000A6AAE4900000300504C5445212830FFFFFF2128300000000000000000000000000000000000000000000000000000330000660000990000CC0000FF0033000033330033660033990033CC0033FF0066000066330066660066990066CC0066FF0099
310
000099330099660099990099CC0099FF00CC0000CC3300CC6600CC9900CCCC00CCFF00FF0000FF3300FF6600FF9900FFCC00FFFF3300003300333300663300993300CC3300FF3333003333333333663333993333CC3333FF3366003366333366663366993366CC3366FF3399003399333399663399993399CC3399FF33CC00
310
33CC3333CC6633CC9933CCCC33CCFF33FF0033FF3333FF6633FF9933FFCC33FFFF6600006600336600666600996600CC6600FF6633006633336633666633996633CC6633FF6666006666336666666666996666CC6666FF6699006699336699666699996699CC6699FF66CC0066CC3366CC6666CC9966CCCC66CCFF66FF0066
310
FF3366FF6666FF9966FFCC66FFFF9900009900339900669900999900CC9900FF9933009933339933669933999933CC9933FF9966009966339966669966999966CC9966FF9999009999339999669999999999CC9999FF99CC0099CC3399CC6699CC9999CCCC99CCFF99FF0099FF3399FF6699FF9999FFCC99FFFFCC0000CC00
310
33CC0066CC0099CC00CCCC00FFCC3300CC3333CC3366CC3399CC33CCCC33FFCC6600CC6633CC6666CC6699CC66CCCC66FFCC9900CC9933CC9966CC9999CC99CCCC99FFCCCC00CCCC33CCCC66CCCC99CCCCCCCCCCFFCCFF00CCFF33CCFF66CCFF99CCFFCCCCFFFFFF0000FF0033FF0066FF0099FF00CCFF00FFFF3300FF3333
310
FF3366FF3399FF33CCFF33FFFF6600FF6633FF6666FF6699FF66CCFF66FFFF9900FF9933FF9966FF9999FF99CCFF99FFFFCC00FFCC33FFCC66FFCC99FFCCCCFFCCFFFFFF00FFFF33FFFF66FFFF99FFFFCCFFFFFF0000000D0D0D1A1A1A2828283535354343435050505D5D5D6B6B6B787878868686939393A1A1A1AEAEAEBB
310
BBBBC9C9C9D6D6D6E4E4E4F1F1F1FFFFFF0000000000000000000000000000000000000000000000000000000000002E4550F1000001924944415478DAEDDC415283401040D1BEFF7D67EF424B6102996080E94ABFB7035382DF0003094400000000000000000000000000000010EDFE05B6A9CBEF5767BE72EF80DF3FB97D
310
4F16DF04A24680E59BBDAD67A509D06D964F26DB3F5EBDB1BFF9D900F20458CFDB9F1CFC78F0EAC106218000020820800002082080A1F0E79E0C45D293A1AA2B20C0C91BFBB3C9D89A353FC045BBFB8DC9FE60D38A070801041040004781D2015AF14D2004A839144E1660E6120510204980D3F603A39D4A7761284F80938E
310
04C72E880A2040F5001986C20F97A66F0D90E464A8550EE01D30751F20800055032CAE86153C17E83E212F7736986C050410A01B16BD7E85EF9513FFF1FD22B9021CD9DD0F2FEDEC1C03DAFA382180000208208000020820C0A70E852376BE279E71287CC5EFDFFF9EB8B3C19401363EC4BDF656FF6401DAD61D24CB596F3F
310
7221329F0E8FFF1F6FAFF0C313340410400001041040000104C832143E3692FDB8A1F0FD0BAE1AA07FB256B5007FB70E27F89A9CE709CE596C8E9BC70100000000000000000000000048E50BC257017A57A0AEFE0000000049454E44AE4260820000000000000000D50AD048A52663452869360478FA94ADED0022CAE60065
310
1420F203C4486F227DCAE0014DFE11F0A70B8BAD692222222222222222229DF901997CC12481A33CAD0000000049454E44AE426082
  0
ENDSEC
  0
EOF
